<svg width="86" height="86" viewBox="0 0 86 86" fill="none" xmlns="http://www.w3.org/2000/svg">
<path d="M41.3182 66.347C42.0187 67.268 42.4748 63.1452 43.2943 63.7071C44.1169 64.2676 44.3104 66.4461 45.2283 65.9221C46.1421 65.3977 47.1359 66.8402 47.4941 65.9199C47.8442 64.9997 48.0607 67.7044 48.5992 67.0609C49.125 66.4162 49.4783 66.7397 50.0505 67.5618C50.2583 67.8604 50.6092 68.1242 50.9382 68.2728C50.9655 68.2542 51.0725 68.2668 51.1014 68.2506C51.9194 68.534 52.7321 68.5918 53.1439 67.9049C53.7975 66.8264 54.4558 68.7262 54.8473 69.1838C54.9713 69.3265 55.0658 69.5195 55.1367 69.7194C55.1667 69.8042 55.1763 69.9799 55.1709 70.1528C55.1709 70.153 55.1709 70.1531 55.1709 70.1532C55.1642 70.3685 55.1341 70.5795 55.0913 70.6054C54.8841 70.7312 54.5671 71.0698 54.1926 71.8414C53.5084 73.283 53.4573 71.666 52.6148 72.4181C52.1646 72.8362 51.8623 73.4922 51.6155 73.8448L51.9371 73.8011C51.5017 74.1503 51.0453 74.27 50.4705 73.8952C49.2365 73.0447 49.2561 77.105 47.5202 74.9067C45.849 72.6933 45.8812 76.9284 44.3221 77.5404C42.767 78.1496 40.7818 75.8371 39.8703 76.0363C38.9497 76.2369 37.7093 76.7332 36.4043 76.1674C36.1502 76.0556 35.8816 76.0204 35.6007 76.0279C35.5561 76.0077 35.4 76.0427 35.3564 76.0204C34.2316 75.9994 32.929 76.6761 31.8248 75.8043C30.4524 74.7202 28.5088 73.3145 27.646 72.3907C26.787 71.468 26.5824 71.2592 25.6189 71.6732C25.0637 71.904 24.3379 71.5567 23.849 70.3103C23.7906 70.1515 23.749 69.9717 23.7841 69.8114C23.7933 69.628 23.9677 69.5643 24.0646 69.448C24.2074 69.1479 24.196 68.8547 24.3481 68.7068C24.7469 68.2526 25.0619 68.6521 25.3915 67.7337C26.0476 65.8944 26.2744 65.1836 26.6932 66.3442C27.1229 67.5043 27.6296 65.0155 27.911 65.3324C28.2057 65.6486 28.0734 67.1385 29.8161 66.1212C31.5505 65.0991 32.4818 64.8609 33.1255 64.6253C33.7377 64.4003 34.8989 65.6306 35.9256 65.3914L35.6817 65.384C35.7321 65.3698 35.782 65.3521 35.831 65.3304C36.8645 64.8735 38.9513 65.3007 39.7828 64.5292C40.6119 63.7592 40.629 65.425 41.3182 66.347Z" fill="white" fill-opacity="0.4"/>
<path d="M49.8455 35.5251C51.3323 35.9601 50.8048 31.764 52.43 31.7789C54.0525 31.7956 55.0229 33.7632 56.4762 32.7025C57.9306 31.6417 60.0702 32.4477 60.4864 31.3412C60.9064 30.2331 61.9084 32.7539 62.732 31.8139C63.5542 30.8749 64.3033 30.9808 65.5012 31.4874C65.8457 31.6311 66.3393 31.7103 66.8754 31.7222C68.2335 31.745 69.9124 31.3344 70.4016 30.3563C71.092 28.983 72.8968 30.3746 73.7692 30.6402C74.0438 30.7209 74.272 30.875 74.4398 31.0476C74.5116 31.1207 74.5659 31.2895 74.5939 31.4602C74.5939 31.4604 74.5939 31.4605 74.5939 31.4606C74.6287 31.6732 74.6209 31.889 74.5539 31.9277C74.2278 32.1119 73.8256 32.5651 73.4696 33.4869C72.8202 35.2079 72.2132 33.7156 70.9405 34.939C70.1164 35.7399 69.6644 36.7574 68.8562 37.2902C68.4375 37.5693 67.9077 37.7167 67.1806 37.6219C65.0754 37.3521 66.0492 41.3061 62.7581 40.0656C59.4605 38.8307 60.6566 42.904 58.3645 44.3546C56.0738 45.8049 52.1151 44.7977 50.6929 45.5481C50.0207 45.902 49.2591 46.3628 48.4118 46.7798C47.4572 47.2489 46.4082 47.6598 45.2187 47.8259C43.1855 48.0998 41.5973 50.0199 39.0184 50.5797C38.7319 50.6347 38.4441 50.6651 38.1437 50.6693C35.4113 50.7042 31.6139 50.8496 29.7663 50.6572C27.9197 50.4657 27.4798 50.4304 26.1713 51.4747C25.4208 52.0736 24.1288 52.2544 22.7611 51.5859C22.071 51.2496 21.9328 50.4882 22.3101 49.9648C22.864 49.1977 23.5832 49.3129 23.6292 48.2779C23.7167 46.2102 23.7705 45.4087 25.104 46.0917C26.4453 46.7705 25.987 44.2424 26.6373 44.3033C27.2871 44.3622 27.8223 45.7596 30.1927 43.5941C32.3982 41.5727 33.7636 40.663 34.7078 39.996C34.7711 39.9495 34.8311 39.9046 34.8882 39.8608C35.683 39.2479 38.3995 39.4265 40.0335 38.2459C41.0148 37.5276 42.7969 36.8625 44.306 36.1821C45.2711 35.7452 46.1276 35.294 46.5892 34.7972C47.7588 33.5358 48.3568 35.0917 49.8455 35.5251Z" fill="white" fill-opacity="0.4"/>
<path d="M21.3469 21.4786C22.6054 21.4114 19.8321 18.3016 20.9183 17.8795C22.0059 17.4533 23.8117 18.6906 24.1514 17.467C24.2108 17.2522 24.3172 17.0759 24.45 16.926C25.147 16.1255 26.4627 15.9382 26.246 15.0677C25.9967 14.0006 28.0339 15.7776 28.2155 14.7322C28.4294 13.6686 29.2139 13.4499 30.4211 13.6654C31.8051 13.8131 33.3557 13.6452 32.9563 12.3276C32.4846 11.1998 34.4307 11.6888 35.0919 11.5026C35.2908 11.4549 35.518 11.4554 35.737 11.4819C35.8298 11.4931 35.9873 11.5727 36.1321 11.6674C36.1322 11.6675 36.1323 11.6675 36.1324 11.6676C36.3127 11.7855 36.4732 11.9271 36.4661 11.9875C36.4323 12.2794 36.5158 12.7845 36.8887 13.6129C37.5298 15.2049 36.2418 14.3079 35.9055 15.8074C35.7083 16.5719 35.4957 17.4923 35.1165 18.1649C34.7216 18.8473 34.5399 19.0949 33.9465 18.9451C33.3197 18.821 33.5885 19.628 33.7849 20.2865C33.9662 20.9638 34.0433 21.5145 32.6491 21.3833C31.4722 21.2917 31.3259 21.7704 31.5233 22.4537C31.7742 23.4376 32.6779 24.8338 32.2411 25.9069C31.4865 27.757 28.1621 28.1213 27.5902 29.1123C27.0164 30.1077 26.4149 31.5952 24.952 32.4561C23.492 33.3146 23.2756 35.7354 21.3656 36.4175C19.5156 37.0777 17.0257 38.0789 15.6149 38.4078C15.5708 38.4189 15.5279 38.4291 15.4863 38.4385C14.0991 38.7384 13.7751 38.8189 13.4283 39.9901C13.2277 40.6618 12.4468 41.1315 11.1131 40.9591C10.768 40.9243 10.4832 40.7225 10.3155 40.4672C10.1492 40.2088 9.9634 39.9989 9.95436 39.7422C9.90659 39.009 10.4697 38.9097 9.9425 38.0671C8.88286 36.3874 8.48859 35.7284 9.78638 35.9364C11.084 36.144 9.41358 34.2216 9.89854 34.11C10.126 34.052 10.4712 34.2382 10.8445 34.2182C11.278 34.2069 11.7379 33.9194 12.0173 32.653C12.5238 30.3309 13.0461 29.2782 13.3517 28.5034C13.6564 27.7298 15.7069 27.3263 16.1817 26.0477C16.6564 24.7732 18.6545 23.0596 18.7302 21.7691C18.8066 20.4803 20.0906 21.5417 21.3469 21.4786Z" fill="white" fill-opacity="0.4"/>
</svg>
