<svg width="426" height="328" viewBox="0 0 426 328" fill="none" xmlns="http://www.w3.org/2000/svg">
<path d="M1.29745 162.257C-0.218397 106.144 -0.976323 78.0882 15.3047 58.8544C31.5858 39.6206 59.3819 35.7349 114.974 27.9634L258.264 7.93219C316.162 -0.161636 345.111 -4.20855 366.411 10.7583C387.712 25.7252 393.716 54.3323 405.724 111.547L411.841 140.69C425.441 205.484 432.24 237.881 415.762 261.333C399.284 284.784 366.5 289.367 300.931 298.533L152.332 319.307C84.0903 328.846 49.9696 333.616 27.4328 314.539C4.89595 295.462 3.96557 261.022 2.1048 192.143L1.29745 162.257Z" fill="#CDEDF8"/>
</svg>
