<svg width="882" height="639" viewBox="0 0 882 639" fill="none" xmlns="http://www.w3.org/2000/svg">
<path d="M880.904 476.301C881.444 536.481 881.714 566.571 863.399 585.91C845.084 605.25 815.024 606.617 754.904 609.35L141.698 637.228C77.4332 640.149 45.301 641.61 24.9377 622.325C4.57451 603.041 4.28577 570.877 3.70831 506.549L0.371913 134.884C-0.215211 69.48 -0.508773 36.7781 19.9386 17.0677C40.3859 -2.64281 73.0551 -1.14963 138.393 1.83667L752.102 29.8867C811.224 32.5889 840.785 33.94 859.029 52.866C877.273 71.7921 877.538 101.383 878.069 160.564L880.904 476.301Z" fill="#CDEDF8"/>
</svg>
