<svg width="20" height="20" viewBox="0 0 20 20" fill="none" xmlns="http://www.w3.org/2000/svg">
<path fill-rule="evenodd" clip-rule="evenodd" d="M9 3.3684e-08C7.56238 0.000155699 6.14571 0.344701 4.86859 1.00479C3.59146 1.66489 2.49105 2.62132 1.65947 3.79402C0.827885 4.96672 0.28933 6.32158 0.0888866 7.74516C-0.111557 9.16874 0.0319443 10.6196 0.507377 11.9764C0.982809 13.3331 1.77634 14.5562 2.82154 15.5433C3.86673 16.5304 5.13318 17.2527 6.51487 17.6498C7.89656 18.0469 9.35328 18.1073 10.7631 17.8258C12.1729 17.5443 13.4947 16.9292 14.618 16.032L18.293 19.707C18.4816 19.8892 18.7342 19.99 18.9964 19.9877C19.2586 19.9854 19.5094 19.8802 19.6948 19.6948C19.8802 19.5094 19.9854 19.2586 19.9877 18.9964C19.99 18.7342 19.8892 18.4816 19.707 18.293L16.032 14.618C17.09 13.2939 17.7526 11.6979 17.9435 10.0138C18.1344 8.32966 17.8459 6.62586 17.1112 5.0985C16.3764 3.57113 15.2253 2.28228 13.7904 1.38029C12.3554 0.478308 10.6949 -0.000146577 9 3.3684e-08ZM3 9C3 8.21207 3.1552 7.43185 3.45673 6.7039C3.75825 5.97595 4.20021 5.31451 4.75736 4.75736C5.31451 4.20021 5.97595 3.75825 6.7039 3.45672C7.43186 3.15519 8.21207 3 9 3C9.78794 3 10.5682 3.15519 11.2961 3.45672C12.0241 3.75825 12.6855 4.20021 13.2426 4.75736C13.7998 5.31451 14.2418 5.97595 14.5433 6.7039C14.8448 7.43185 15 8.21207 15 9C15 10.5913 14.3679 12.1174 13.2426 13.2426C12.1174 14.3679 10.5913 15 9 15C7.4087 15 5.88258 14.3679 4.75736 13.2426C3.63214 12.1174 3 10.5913 3 9Z" fill="#1DA7DF"/>
</svg>
