<svg width="24" height="24" viewBox="0 0 24 24" fill="none" xmlns="http://www.w3.org/2000/svg">
<mask id="mask0_99_346" style="mask-type:luminance" maskUnits="userSpaceOnUse" x="0" y="0" width="24" height="24">
<path d="M0.125 0.125H23.875V23.875H0.125V0.125Z" fill="white"/>
</mask>
<g mask="url(#mask0_99_346)">
<path d="M14.2375 0.3L13.525 0.2C11.3837 -0.109178 9.19856 0.196694 7.22442 1.08196C5.25028 1.96722 3.56845 3.3954 2.375 5.2C1.10519 6.92497 0.348232 8.97342 0.191224 11.1096C0.0342165 13.2458 0.483545 15.3829 1.4875 17.275C1.59025 17.4646 1.65421 17.6728 1.67568 17.8874C1.69714 18.102 1.67566 18.3188 1.6125 18.525C1.1 20.2875 0.625 22.0625 0.125 23.925L0.75 23.7375C2.4375 23.2875 4.125 22.8375 5.8125 22.425C6.16868 22.351 6.53889 22.3858 6.875 22.525C8.389 23.2639 10.0435 23.6704 11.7276 23.7172C13.4116 23.7641 15.0862 23.4502 16.6389 22.7965C18.1916 22.1429 19.5866 21.1647 20.7301 19.9276C21.8737 18.6905 22.7394 17.2231 23.2692 15.6239C23.799 14.0247 23.9805 12.3307 23.8017 10.6555C23.6229 8.98034 23.0878 7.3628 22.2324 5.91144C21.377 4.46009 20.2211 3.20849 18.8421 2.24066C17.4632 1.27282 15.8932 0.611131 14.2375 0.3ZM17.3875 16.7C16.9332 17.1067 16.3792 17.3858 15.782 17.5088C15.1847 17.6317 14.5655 17.5942 13.9875 17.4C11.3687 16.6615 9.09656 15.0183 7.575 12.7625C6.99397 11.9645 6.52698 11.0894 6.1875 10.1625C6.00357 9.62472 5.9704 9.04684 6.09159 8.49154C6.21279 7.93625 6.48372 7.42474 6.875 7.0125C7.06548 6.76939 7.32476 6.58929 7.61907 6.49565C7.91337 6.402 8.22906 6.39917 8.525 6.4875C8.775 6.55 8.95 6.9125 9.175 7.1875C9.35833 7.70417 9.57083 8.20833 9.8125 8.7C9.99553 8.95063 10.072 9.2635 10.0251 9.5703C9.97829 9.87709 9.81198 10.1529 9.5625 10.3375C9 10.8375 9.0875 11.25 9.4875 11.8125C10.3713 13.0869 11.5917 14.0909 13.0125 14.7125C13.4125 14.8875 13.7125 14.925 13.975 14.5125C14.0875 14.35 14.2375 14.2125 14.3625 14.0625C15.0875 13.15 14.8625 13.1625 16.0125 13.6625C16.3792 13.8167 16.7333 13.9958 17.075 14.2C17.4125 14.4 17.925 14.6125 18 14.9125C18.0722 15.238 18.0532 15.577 17.9451 15.8924C17.837 16.2077 17.6441 16.4872 17.3875 16.7Z" fill="#60D669"/>
</g>
</svg>
