<svg width="72" height="98" viewBox="0 0 72 98" fill="none" xmlns="http://www.w3.org/2000/svg">
<path d="M11.9634 3.47207C11.8804 4.69865 11.5004 6.202 11.1964 7.32239C11.1017 7.66854 10.7958 7.47285 10.7179 7.71933C10.568 8.20025 10.7122 8.65237 10.5671 9.12325C10.5178 9.28064 10.0124 9.08764 9.97267 9.25522C9.76107 10.1802 9.9515 11.0284 9.97655 11.9276C10.0329 14.7694 11.028 17.3146 12.5685 20.6449C13.1306 21.9901 14.1346 23.3791 15.3644 24.6745C16.4479 25.8317 17.8026 27.4542 19.3958 28.2442C19.5808 28.3359 19.7183 27.8979 19.7706 27.8884C20.5779 27.7427 19.9299 28.3876 20.2084 28.7003C20.9478 29.5232 21.9076 30.2 22.9036 30.6988C23.3121 30.9035 23.7376 31.0419 24.1508 31.1189C24.6792 31.2065 24.4282 30.2153 24.7809 30.8274C24.8083 30.869 24.5573 31.2886 24.6873 31.3744C24.9845 31.5737 25.6382 31.6034 25.8961 31.6647C26.3973 31.7903 26.4858 31.7892 26.9773 31.8004C27.6433 31.8152 28.4968 31.9623 29.2153 31.6972C29.3645 31.6399 29.0611 31.2146 29.2805 31.0809C29.4981 30.9516 30.1204 30.8142 30.3612 30.8465C30.605 30.8819 30.6448 31.2682 30.7113 31.3368C31.2958 31.9132 31.6376 30.6516 31.6822 30.5931C31.8959 30.4118 32.0989 30.2503 32.2797 30.1089C33.6956 29.0773 35.0182 28.6564 35.6375 27.7495C35.8019 27.5087 35.923 27.246 36.0125 26.959C36.1966 26.3646 36.2082 25.4755 36.1535 24.9175C36.1434 24.7932 36.1308 24.6841 36.1199 24.5996C36.1092 24.1561 35.6669 23.3024 34.5772 22.6057C34.4474 22.5209 34.2737 23.0884 34.118 22.9893C33.4643 22.5759 32.7054 22.1467 31.904 21.6549C31.8632 21.525 30.9734 21.2819 29.8211 21.3595C29.6274 21.3691 29.7455 20.8252 29.5361 20.8091C28.2823 20.6789 25.7358 20.7964 26.0695 23.0937C25.2363 23.4417 24.2357 23.9419 23.2945 24.0321C22.6857 24.0931 22.8317 23.3496 22.3958 23.9145C22.2976 24.042 22.7251 24.3263 22.5595 24.4871C21.9932 25.0382 21.2638 25.4605 20.682 26.0177C20.5969 26.1089 20.523 26.2091 20.4648 26.3195C20.4007 26.4444 20.7155 26.7338 20.7427 26.8123C20.9904 27.4155 19.9403 27.089 19.7895 27.176C18.7977 27.6205 18.6498 28.5087 18.3593 29.4738C18.2925 29.7024 18.9162 29.5857 18.8746 29.8048C18.6574 30.9376 18.4583 32.1913 18.1552 33.4479C18.0869 33.7294 17.6107 33.4514 17.5535 33.5855C17.3107 34.1911 18.2284 34.3338 18.0349 34.9146C17.996 35.0376 17.579 34.9748 17.5336 34.9979C16.8216 35.3663 17.8495 35.6593 17.8752 35.7438C18.2285 36.8717 17.2324 37.7021 17.5051 38.8353C17.5392 38.9686 18.0283 38.607 18.0921 38.9821C18.4665 41.1505 18.7843 43.4556 18.9689 45.7272C18.9843 46.0231 19.0138 46.3317 19.0519 46.6363C19.1004 46.9871 18.6476 46.8795 18.6075 46.9139C18.013 47.5326 19.0658 47.4078 19.1425 47.4936C19.735 48.2136 19.4542 49.4378 20.8322 49.3368C22.6852 52.9516 26.4022 55.2536 29.2834 58.5234C29.3218 58.5644 28.9591 58.9263 29.0375 59.0068C29.9873 59.9753 30.2108 59.1817 31.439 58.8233C31.7425 58.73 31.7122 60.0569 31.7238 60.1608C31.7511 60.5385 31.179 61.0696 31.2109 61.1584C31.4979 61.8742 32.6532 59.6881 33.3338 60.0671C33.3537 60.0828 33.0414 60.4303 33.0782 60.5024C33.1925 60.7282 33.4603 60.6681 33.5646 60.9019C33.7988 61.4376 33.4049 62.5909 34.3693 62.2934C34.491 62.2518 34.9989 60.9417 35.595 61.305C35.8371 61.4576 36.9675 61.9476 37.2507 62.1614C37.5346 62.3804 37.1399 62.7042 37.1546 62.7317C37.7934 63.6444 37.3771 63.7386 37.5065 64.7418C37.5422 64.9975 37.6112 65.0562 37.6963 64.9991C37.9498 64.8345 38.3356 63.6868 38.5279 63.5713C38.7807 63.4176 39.2623 64.099 39.3814 64.3117C39.4956 64.5259 39.2058 64.7381 39.3259 64.8759C40.1475 65.7726 40.039 63.9938 40.4338 63.7558C41.3294 63.1699 41.557 64.8054 42.2659 65.0666C42.4508 65.1348 42.3461 64.7613 42.5172 64.7514C43.1893 64.7108 43.5644 65.2353 44.3465 64.8192C44.4812 64.7527 45.0717 63.8254 45.4654 64.4982C45.525 64.5953 45.3759 64.9901 45.667 65.066C46.0988 65.1825 46.8919 65.197 47.33 64.9982C47.6511 64.8524 47.174 64.2792 47.6143 64.4095C47.8132 64.4652 47.5321 64.8949 47.9073 64.9663C48.2856 65.0428 49.177 64.8122 49.5017 64.6906C49.8312 64.5736 49.4978 64.1685 49.5158 64.1288C49.6189 63.9039 50.1027 63.4722 50.1463 63.4497C50.493 63.2965 50.8255 63.1418 51.1112 62.9883C52.5049 62.24 53.2622 62.0731 53.8596 61.1715C54.4575 60.2628 54.8587 59.192 54.87 58.0685C54.8718 57.8542 54.3472 57.945 54.3422 57.9118C54.1819 57.2071 55.5038 57.8671 55.9842 57.3322C54.9407 57.3789 55.1497 57.0745 55.0096 56.558C54.9391 56.3117 54.5454 56.4761 54.503 56.4554C53.8703 56.1622 54.6207 55.8528 54.7704 55.7539C55.323 55.42 54.5804 55.2773 54.9331 55.0375C55.2773 54.7785 55.9462 55.0596 55.8077 54.5211C55.4114 54.4768 54.5622 55.0704 54.317 54.7612C53.9535 54.3209 53.6932 53.6973 53.4128 53.1759C53.1574 52.5485 52.1122 51.7098 51.4677 51.434C50.3907 50.964 49.9645 50.94 49.3065 50.6094C48.4602 50.1955 48.3339 50.4729 48.0268 50.707C47.9225 50.8148 47.8012 50.9186 47.6253 50.9845C47.0626 51.2303 47.4836 49.5084 47.4286 49.1152C47.3379 48.7246 47.1808 49.1087 47.0377 48.8972C46.8816 48.6869 47.2355 48.4273 46.8482 48.3499C46.4224 48.2574 45.5175 49.104 45.5306 49.5284C45.5109 50.4112 46.082 51.1552 45.3115 51.0744C45.2639 51.0715 45.2465 50.5827 45.0689 50.5954C43.6293 50.7306 42.269 51.6152 40.9072 52.3662C40.7167 52.4714 40.5222 51.9535 40.4063 52.0118C39.198 52.6461 40.1352 52.9895 40.3247 54.158C39.5293 53.1286 38.6779 52.8335 37.9727 53.5843C37.5564 54.0343 38.0484 54.3358 38.0967 54.8858C38.1122 55.0502 37.5437 55.1212 37.6998 55.3505C38.212 56.0979 39.2005 56.4139 38.2938 56.9293C38.2526 56.9519 37.9637 56.5495 37.8486 56.6496C37.1045 57.306 37.7641 57.9409 37.2785 58.838C37.0627 59.2439 36.5623 59.7129 36.0925 60.1922C35.7715 60.5015 35.474 60.845 35.3051 61.1599C33.9658 60.5682 33.9402 61.5965 34.8363 62.1723C34.6472 62.7016 34.5944 63.3074 34.3981 63.8422C34.3311 64.0281 33.925 63.8609 33.8772 63.8801C33.127 64.2061 34.0892 64.548 34.1223 64.668C34.4423 66.0251 33.8288 67.2403 34.7596 68.4751C34.7934 68.5188 35.801 68.424 35.1364 68.9048C35.0907 68.938 34.5579 68.5707 34.6366 69.2127C34.6753 69.5268 34.6272 70.008 34.6362 70.5188C34.6319 70.9881 34.7581 71.5025 35.1313 71.8175C35.3114 71.9827 36.2398 72.0824 35.8474 72.7204C35.7943 72.8081 35.5083 72.8856 35.4017 73.0313C35.072 73.5116 36.0338 73.1422 35.4407 73.8473C34.8497 74.5559 34.7092 75.57 35.7725 75.9782C35.8064 75.994 36.5818 75.6768 36.7492 75.9056C37.0191 76.2781 37.319 76.8826 37.6549 77.2361C37.8138 77.4032 38.0812 76.952 38.1151 76.975C39.3632 77.8856 39.8478 78.9402 41.0108 80.1529C41.227 80.3793 42.3259 80.3754 42.4697 81.1568C42.6403 82.0177 40.6206 83.615 42.2451 84.0454C42.917 84.2255 45.2634 82.0348 45.3078 83.9743C46.1996 84.3189 46.9467 84.8274 47.7066 85.3267L47.6972 85.3215C48.6066 85.9579 49.4961 86.6644 50.6744 86.9913C50.7685 87.0178 51.4729 86.4192 51.6555 86.5396C51.9286 86.7217 51.8807 87.1655 52.0723 87.3062C52.87 87.904 53.8322 88.0306 54.6464 88.5198C54.8281 88.6283 54.797 88.7841 54.8178 88.9388C54.831 89.0449 54.8686 89.1504 55.0225 89.2406C55.3956 89.4589 55.9047 89.0941 56.3053 89.5965C56.6068 89.9772 56.4956 91.1922 56.9655 91.5724C57.4826 90.5769 57.8346 90.777 58.607 90.8265C58.757 90.8361 58.7954 90.4201 58.8752 90.4066C59.1986 90.3412 59.2798 90.7413 59.5996 90.6541C59.6777 90.6338 59.8488 90.2911 59.9222 90.2551C60.5511 89.935 60.8019 91.0169 60.8446 91.2048C61.0075 91.9188 61.4187 91.5655 61.6403 91.9239C61.8562 92.2796 61.2619 92.3005 61.5702 92.6033C62.2129 93.2319 63.2273 93.6621 63.995 94.0623C64.3018 94.2195 64.3182 93.657 64.3674 93.6689C65.0675 93.8712 65.472 94.6809 66.2829 93.9479C65.5476 96.525 66.7835 93.9123 67.4625 94.8451C67.5156 94.9196 67.0448 96.0769 66.6875 96.1013C66.3304 96.1257 66.0888 95.5684 65.5752 95.6299C65.4553 95.6445 64.413 96.4281 64.3117 96.4566C63.5116 96.6751 64.2609 94.9698 64.2773 94.8638C64.433 93.7093 63.2363 94.5197 63.0323 94.5159C62.0893 94.4941 61.5518 93.9386 60.7831 93.8782C60.2794 93.8358 59.707 94.9128 59.3896 94.7158C58.3469 94.0681 58.7061 92.3516 57.0188 93.165C56.6548 93.3362 56.2899 94.6423 55.9498 93.3057C55.9276 93.2211 55.7582 92.0674 55.1418 92.4363C55.0641 92.4829 54.8914 92.8306 54.8195 92.831C54.3393 92.826 54.2217 92.4201 53.7317 92.3357C53.5391 92.303 53.3216 92.2699 53.1101 92.222C52.7814 92.1455 52.4608 92.0318 52.2033 91.8041C51.9475 91.5784 51.9211 90.7405 51.8696 90.5101C51.7288 89.8512 50.9055 90.3482 50.9717 89.6751C51.04 88.9992 51.9664 88.443 51.5521 87.7432C51.026 88.6043 50.4561 89.4708 49.9106 90.3272C48.5871 89.5285 47.4281 88.4227 46.2853 87.7802L46.3549 87.8191C46.3034 87.7919 46.2515 87.7649 46.1993 87.7381C46.0164 87.6452 45.9399 88.2221 45.735 88.1331C44.8688 87.7512 44.3639 87.005 43.4653 86.6249C42.7682 86.3316 41.7623 86.3576 41.0226 86.0205C41.2804 84.7977 40.1163 84.4445 39.5045 83.8336C39.2911 83.6218 39.4971 83.3911 39.3944 83.1819C39.0078 82.3972 38.6575 83.4217 38.384 83.4072C37.2043 83.3208 38.6306 81.5078 37.7899 80.8287C37.7484 80.7965 36.3816 81.2052 36.2502 81.1827C35.4354 81.0901 36.4699 80.8008 36.2467 80.4551C35.8399 79.8162 35.7094 79.2597 34.8611 78.8443C34.6155 78.7282 33.6123 78.7338 33.7576 77.955C33.7774 77.8542 34.1207 77.6329 34.1069 77.5765C33.8398 76.5733 32.7993 77.2973 32.0986 77.0374C31.3889 76.7639 31.6615 75.4648 31.8043 75.1806C32.152 74.4327 32.2315 75.3841 32.3038 75.3706C33.1219 75.2517 32.6795 74.7594 32.5189 74.2833C33.6027 73.6575 33.2723 73.1151 32.3521 73.7864C32.2519 73.8637 32.524 74.1686 32.5189 74.2833C31.2275 74.4536 30.6765 73.6283 31.5045 72.3943C31.9028 71.8335 32.5626 72.0568 32.1307 70.9678C32.1254 70.9555 32.1198 70.9428 32.114 70.9298C31.9335 70.5203 31.1156 70.8457 30.8112 70.4992C30.1091 69.6901 30.6764 68.2459 30.4574 67.2059C30.3766 66.8202 29.9396 67.2435 29.8688 66.9759C29.6826 66.2558 30.0117 65.5908 29.8464 64.8321C29.8312 64.7617 29.3322 64.9226 29.3325 64.6791C29.3424 62.8154 29.9317 61.153 30.7134 59.2478C30.9032 58.788 31.1394 58.1255 31.4474 57.4806C31.6959 56.933 31.97 56.3974 32.2314 56.05C33.1333 54.8348 34.7924 53.8517 35.4747 52.7978C35.9262 52.1068 35.4433 51.9136 35.4348 51.4192C35.4274 50.4467 37.1656 50.3693 37.4054 50.3991C37.4101 50.4002 36.9757 50.9879 37.4279 50.9006C37.954 51.1264 37.4002 50.4074 37.4054 50.3991C37.5584 50.4016 38.7186 49.5092 38.8983 49.2559C38.9899 49.1145 38.6248 48.8076 38.6803 48.7393C40.0101 47.1482 41.9044 45.7087 44.6631 45.2705C44.7122 45.2691 44.7592 45.7957 44.8693 45.7872C46.3883 45.7115 47.4362 45.0516 49.0547 44.994C49.2739 44.9892 49.488 45.0006 49.6943 45.0273C50.3208 44.999 50.806 45.3398 51.0205 46.2083C51.6766 46.2747 52.5548 46.9612 53.0666 47.4193C53.5679 47.8711 54.0715 46.9903 54.1395 46.9959C55.7269 47.1881 56.9876 48.1327 58.091 49.9969C58.3473 50.4696 58.5542 50.9397 58.763 51.4354C59.2223 52.4424 59.864 54.2932 60.0718 55.3494C60.2553 56.1849 60.0338 56.6966 60.1701 57.4674C60.1873 57.5728 60.6446 57.4806 60.6611 57.5133C61.1637 58.4393 60.0711 57.9406 59.8639 58.1041C59.0887 58.6836 58.688 58.9516 58.8039 60.0241C58.8361 60.2519 60.1931 61.3816 60.1118 61.9014C60.0115 62.5439 59.5599 62.1188 59.445 62.7747C59.4331 62.8302 59.7685 62.9561 59.5851 63.3278C59.4863 63.5264 59.3823 63.7208 59.2703 63.9175C58.2864 66.0403 55.3555 67.7798 54.6663 68.132C54.5487 68.2058 54.9774 68.6031 54.8321 68.7069C54.7989 68.731 54.7698 68.7528 54.7443 68.7724C52.8901 69.9683 51.2088 70.4093 49.6448 70.5124C49.2467 70.5296 49.4076 70.0935 49.3013 69.9969C48.6692 69.4106 48.1523 70.525 48.0215 70.5614C45.2106 71.4128 43.0847 70.3959 40.3041 70.3263C40.168 70.3328 38.7296 71.1409 38.4647 70.0832C38.438 70.0112 38.2268 68.9535 37.6055 69.4476C37.5652 69.4777 37.7228 70.0499 37.2045 69.8305C36.8974 69.6992 36.4409 69.6509 36.0032 69.4609C35.7283 69.3401 35.4642 69.1545 35.2772 68.8372C35.1345 68.594 35.029 67.5119 34.1355 67.955C34.0829 67.9928 32.4258 69.145 32.6075 67.9026C32.6388 67.6983 33.2411 66.5882 32.2726 66.8345C32.0847 66.8814 32.1997 67.2547 31.7711 67.2372C31.1145 67.2117 30.5774 66.5477 29.6619 66.6848C29.5041 66.712 28.599 67.1906 28.5405 66.4021C28.5326 66.2794 28.8565 65.979 28.6822 65.8227C27.8542 65.0769 26.7356 64.7118 25.9725 63.8501C25.7041 63.5462 26.2512 63.0915 26.0216 62.7136C25.7911 62.3359 25.2374 61.729 24.7136 61.7306C24.187 61.7306 23.9173 62.8866 23.3435 62.5676C20.8376 61.1546 19.0816 58.7696 17.1905 56.4583C16.908 56.1084 16.8536 56.6484 16.4178 56.14C14.7997 54.3931 11.9726 50.3498 12.2784 47.4108C12.2856 47.3198 12.2951 47.2371 12.3065 47.1619C12.6718 45.8859 13.4831 47.4233 13.5119 46.3097C13.5275 45.7577 12.1708 45.4192 12.1063 45.2956C11.4607 44.088 11.857 43.0872 11.5094 41.9397C11.4379 41.7012 10.9658 42.016 10.9106 41.8109C10.7176 41.1093 10.8458 40.3174 10.7276 39.6311C10.6733 39.3198 10.2898 39.4185 10.2899 39.1246C10.2874 38.4249 10.3995 37.7844 10.7233 37.0753C10.753 37.0121 11.2649 37.3965 11.2518 36.8832C11.23 36.0403 11.559 34.9977 11.2006 34.0035C11.0939 33.7058 10.1947 33.6709 10.8388 33.0381C10.9756 32.9038 12.0347 33.1389 11.1537 32.332C11.0012 32.2113 9.86795 30.7536 10.7797 30.1734C11.0157 30.0265 11.9537 29.7286 11.8908 29.332C11.8794 29.2755 11.3656 29.3938 11.3829 29.0647C11.4608 27.8889 11.8569 26.6557 12.2713 25.3381C12.3855 24.9826 11.6992 25.2899 11.8945 24.7544C12.4269 23.2595 13.8301 21.4502 15.3055 20.4107C15.8431 20.0296 15.7603 20.6415 15.8272 20.6429C16.2071 20.6751 16.4027 20.57 16.5194 20.4033C16.6225 20.1895 16.4997 19.7753 16.5575 19.6881C17.1375 18.8399 18.0129 18.7939 18.6938 18.1936C18.8836 18.0288 18.4773 17.7345 18.4956 17.6721C18.7062 17.0441 18.8448 17.9619 19.1702 17.8609C20.0824 17.5828 20.937 17.017 21.7436 16.4973C22.0392 16.3066 21.4264 16.0239 21.7012 15.8557C23.3253 14.8598 25.2394 13.9971 27.5011 13.6803C27.9275 13.6256 27.7749 14.1009 27.8844 14.1709C28.6021 14.6681 29.3382 13.6107 29.5801 13.4961C30.6089 12.9728 31.1158 13.3128 32.2548 13.3302C33.3592 13.3644 34.7451 13.6309 36.1053 14.3864C38.0301 15.5483 42.0427 17.1223 43.6724 22.4742C43.6841 22.5205 43.6955 22.5669 43.7065 22.6134C44.2909 25.681 43.8276 27.4644 42.9235 29.7179C41.6361 32.6686 39.1138 34.5427 37.3503 35.7585C37.1492 35.8985 37.6625 36.2286 37.4922 36.3552C37.1809 36.5815 36.8809 36.7854 36.5924 36.975C33.9149 38.6394 31.3709 39.2277 28.5142 39.644C28.2397 39.6783 28.6844 40.1749 28.2348 40.2456C27.3128 40.3943 26.0936 40.3503 25.1535 40.079C24.701 39.9482 25.3635 39.5649 24.9166 39.4411C23.8813 39.1471 22.7875 38.8709 21.7217 38.6092C21.2639 38.4947 21.7721 39.2388 21.1772 39.0412C20.4687 38.8012 19.7776 38.5165 19.1117 38.1875C16.7491 37.0275 14.478 35.6148 12.6294 33.5074C12.4746 33.3302 12.9861 32.34 12.4854 32.2141C12.2681 32.4314 12.0468 32.7139 11.8318 32.9597C9.07676 30.9087 6.54676 28.2372 4.79211 24.5067C4.34814 23.5009 3.80161 22.3741 3.24697 21.1428C3.16505 20.9605 2.78211 21.5206 2.62028 21.166C1.67901 19.1149 0.688358 16.7772 0.812185 14.206C0.82566 13.9544 1.85078 13.9032 1.58873 13.2334C1.53802 13.1216 1.26859 12.0942 1.02667 11.8412C0.98978 11.8061 0.531817 12.0505 0.485575 11.7018C0.230888 9.70086 0.383807 7.62149 0.851984 5.7669C0.928088 5.47388 1.405 5.83842 1.46378 5.63197C1.87718 4.16381 1.75107 2.50881 2.48262 1.22756C2.97416 0.384864 3.76989 0.891388 4.71646 0.618287C4.84919 0.581456 4.99103 0.0496434 5.48925 0.136975C6.73966 0.359174 8.03369 0.923934 9.37382 1.12944C9.66086 1.17638 9.5163 0.435948 10.1055 0.99515C10.1438 1.03499 10.26 1.56273 10.4681 1.72731C10.6113 1.84247 11.1434 1.81453 11.3137 2.01977C11.485 2.22095 11.025 2.30952 11.2116 2.62836C11.4029 2.94435 11.9961 2.94676 11.9634 3.47207ZM55.3084 49.8625C55.5017 50.6755 56.8746 49.5053 55.9013 49.2167C55.8526 49.2062 55.2948 49.8205 55.3084 49.8625ZM48.1247 87.255C48.0085 86.256 47.0651 87.0503 47.1078 87.7882C47.1476 88.5252 48.1607 87.5585 48.1247 87.255ZM54.0899 90.0068C53.7313 89.1136 52.4303 91.3038 53.3816 91.2233C53.4366 91.2192 54.1115 90.0589 54.0899 90.0068ZM4.52713 2.82384C4.55126 2.82187 4.64443 2.43719 4.62346 2.42295C4.10112 2.1092 3.91286 2.88923 4.52713 2.82384ZM60.1193 92.3078C60.0663 91.8987 59.3056 91.9687 59.3706 92.4771C59.4243 92.8868 60.1853 92.8169 60.1193 92.3078ZM42.159 65.9363C42.1555 65.9092 41.8834 65.8432 41.8646 65.9929C41.8069 66.4776 42.2225 66.4004 42.159 65.9363ZM69.8404 97.1311C68.4602 96.3136 68.5409 93.9979 69.9965 95.007C70.2595 95.1899 69.0827 95.2925 69.3554 95.6449C69.8577 96.2897 70.8928 95.338 71.2416 96.3149C71.3015 96.4915 69.9175 97.1818 69.8365 97.1324C69.8378 97.132 69.8391 97.1315 69.8404 97.1311ZM54.1564 51.715C54.1511 51.7363 54.3987 52.0231 54.4186 52.0175C55.0126 51.8147 54.4311 51.1434 54.1564 51.715ZM28.1837 58.361C28.1945 58.3091 27.5181 57.7638 27.469 57.783C26.542 58.2632 27.9379 59.3914 28.1837 58.361ZM35.2641 61.1576C35.6572 61.7105 35.6094 62.0762 34.8375 62.1708C34.9715 61.8275 35.0948 61.4802 35.2641 61.1576Z" fill="white" fill-opacity="0.4"/>
</svg>
