<svg width="87" height="86" viewBox="0 0 87 86" fill="none" xmlns="http://www.w3.org/2000/svg">
<path d="M17.5154 23.0379C18.5534 22.7446 16.5674 20.4786 17.5032 19.8904C18.4392 19.3002 19.7978 20.0813 20.1978 18.9131C20.3271 18.5318 20.5842 18.2335 20.8575 17.9843C21.4204 17.4687 22.067 17.1328 21.9117 16.6013C21.6774 15.8125 23.3085 16.8607 23.3679 16.0069C23.4237 15.1556 23.8749 14.932 24.7521 14.7355C25.6331 14.5482 27.1391 13.1128 26.8115 12.1004C26.4879 11.1039 28.0494 11.0302 28.5665 10.7268C28.7272 10.6333 28.9032 10.5884 29.0725 10.5681C29.1442 10.5598 29.2641 10.6004 29.374 10.657C29.374 10.6571 29.3741 10.6571 29.3742 10.6571C29.511 10.7276 29.6321 10.8229 29.6254 10.8782C29.5937 11.1453 29.641 11.594 29.9198 12.2552C30.4318 13.4951 29.3829 13.0256 29.2756 14.2822C29.1596 15.5382 29.6874 16.7209 28.3649 17.4887C27.0511 18.2285 29.266 20.1203 26.8376 20.7459C26.2069 20.9059 25.9049 21.1427 25.7813 21.4506C25.4381 22.3137 26.5807 23.703 26.0163 25.003C25.2511 26.7639 22.5072 27.6872 21.9492 28.6715C21.3906 29.659 20.7641 31.0876 19.4709 32.1223C18.4322 32.9525 17.9536 34.5315 16.913 35.6187C16.6588 35.8846 16.3759 36.1161 16.0448 36.3003C14.3546 37.2499 12.0078 38.5625 10.7793 39.0004C9.55219 39.4435 9.2662 39.547 8.7684 40.601C8.48111 41.2068 7.72807 41.694 6.65935 41.6729C6.12127 41.6626 5.78963 41.2213 5.8622 40.7735C5.968 40.1191 6.46052 39.9789 6.16438 39.3046C5.57152 37.9575 5.35173 37.4331 6.40175 37.4807C7.45402 37.5242 6.35939 36.0537 6.77879 35.9062C7.19508 35.7555 7.99606 36.4816 8.72591 34.4181C9.43746 32.3573 9.96092 31.37 10.2911 30.6537C10.3275 30.5737 10.3817 30.494 10.4501 30.4133C10.9845 29.7859 12.3982 29.1132 12.8507 28.039C13.3603 26.8371 15.1577 24.9522 15.3387 23.7865C15.5199 22.6238 16.4781 23.3288 17.5154 23.0379Z" fill="#BAE582"/>
<path d="M41.5781 33.4466C42.7032 33.8142 42.6296 30.7769 43.8915 30.8453C45.1534 30.9137 45.7571 32.3621 46.9733 31.6464C48.1894 30.9307 49.7989 31.5763 50.2062 30.7923C50.6135 30.0081 51.2119 31.8514 51.9231 31.1986C52.6343 30.5458 53.2076 30.6437 54.1082 31.0392C55.0089 31.4347 57.389 31.3078 57.9861 30.3307C58.5831 29.3536 59.8803 30.3763 60.525 30.5216C60.7258 30.5669 60.8998 30.6579 61.0435 30.7634C61.1044 30.8081 61.1596 30.9225 61.1938 31.0413C61.1938 31.0414 61.1939 31.0414 61.1939 31.0415C61.2365 31.1894 61.2467 31.3439 61.1951 31.379C60.9449 31.5494 60.6008 31.9078 60.2674 32.5848C59.6458 33.847 59.2278 32.7708 58.1472 33.6389C57.0666 34.507 56.6246 35.747 54.9874 35.4997C53.3501 35.2524 53.8195 38.1276 51.3246 37.1409C48.8297 36.1542 49.4531 39.123 47.5309 40.096C45.6087 41.0689 42.5791 40.2052 41.3915 40.6917C40.204 41.1782 38.6551 41.9916 36.8066 42.1091C34.9581 42.2266 33.0919 43.8136 30.9762 43.6823C28.8605 43.551 25.8991 43.4685 24.4791 43.2505C23.0591 43.0325 22.7161 42.9899 21.6121 43.6916C20.9776 44.095 19.9673 44.1786 18.9449 43.6629C18.4303 43.4034 18.3711 42.8525 18.7074 42.4838C19.1991 41.9447 19.7603 42.0483 19.8792 41.3042C20.1168 39.8172 20.2334 39.2395 21.2298 39.7778C22.2262 40.316 22.0927 38.4783 22.6029 38.5472C23.1131 38.6161 23.4003 39.6399 25.4753 38.189C27.5503 36.738 28.7543 36.1733 29.5715 35.7329C30.3888 35.2926 32.4647 35.6544 33.7932 34.9247C35.1216 34.195 38.0945 33.6555 39.1077 32.7958C40.1209 31.9361 40.453 33.079 41.5781 33.4466Z" fill="#BAE582"/>
<path d="M55.0819 59.2382C56.6199 60.1247 58.2794 57.3893 60.2037 58.0773C62.1226 58.7645 62.1956 60.3487 64.5052 60.3162C66.8096 60.283 68.9194 61.6522 70.0166 61.1575C71.0953 60.66 70.9484 62.5952 72.4365 62.3663C72.6561 62.3324 72.8586 62.3112 73.0478 62.3022C74.188 62.2572 74.904 62.6209 75.9128 63.3004C77.0737 64.0955 80.8288 65.1465 82.3334 64.5612C83.8239 63.9758 85.2323 65.5095 86.1435 65.9181C86.4286 66.0456 86.6405 66.197 86.8135 66.3491C86.8855 66.4135 86.9139 66.5406 86.9063 66.6639C86.9063 66.664 86.9063 66.6641 86.9063 66.6642C86.897 66.8178 86.8331 66.9656 86.7322 66.9787C86.2386 67.0444 85.4864 67.2135 84.5738 67.6655C82.8571 68.503 82.8452 67.3407 80.6516 67.5906C78.4572 67.8378 77.0504 68.7254 74.6489 67.6991C73.7355 67.3054 73.0305 67.4758 72.3025 67.7117C71.1795 68.0942 70.0224 68.6476 68.0052 67.3499C64.7149 65.2383 63.9271 68.1829 60.3796 68.0946C56.8199 68.0043 52.6422 65.7343 50.5122 65.5758C48.3893 65.4183 45.5035 65.3697 42.5744 64.5557C39.6446 63.7416 35.8158 64.2218 32.6145 63.0528C29.4178 61.8845 24.8793 60.3382 22.8097 59.4385C20.7395 58.5387 20.2336 58.3302 18.1089 58.4036C16.888 58.4458 15.2738 58.0173 13.9957 57.0512C13.3523 56.565 13.5865 56.0468 14.3253 55.887C15.4056 55.6534 16.2131 56.0244 16.8375 55.4235C18.0846 54.2225 18.6072 53.7679 19.8317 54.7412C21.0552 55.7141 21.9374 54.0177 22.6851 54.3324C23.4357 54.6475 23.273 55.6984 27.345 55.4434C31.4187 55.1885 33.6124 55.2855 35.141 55.3015C36.668 55.3174 39.6672 56.6704 42.1553 56.6831C44.6467 56.6964 49.564 57.694 51.6407 57.434C53.7246 57.1752 53.5652 58.3546 55.0819 59.2382Z" fill="#BAE582"/>
</svg>
