<svg width="127" height="516" viewBox="0 0 127 516" fill="none" xmlns="http://www.w3.org/2000/svg">
<path d="M11.317 24.4379C11.6488 24.6777 13.003 25.6222 13.5834 26.0409C12.9555 25.5219 10.1195 23.57 11.317 24.4379ZM56.1609 80.7779C55.9668 80.2404 55.7667 79.7148 55.5537 79.1841C56.2056 80.6611 56.936 82.7103 57.3821 84.1455C57.4565 84.3807 57.3055 83.7575 57.4781 84.3152C57.6471 84.8744 57.5665 84.776 57.7909 85.5961C58.0786 86.4999 59.0599 90.759 59.2661 92.2746C60.1925 97.9005 60.4502 103.744 61.1032 109.63C60.5421 103.563 61.1546 109.662 61.3659 111.374C61.4188 111.7 61.2726 111.706 61.8999 115.585C62.0051 116.197 62.124 116.905 62.2559 117.736C62.8095 121.493 62.5097 117.981 63.2059 124.307C62.5294 119.461 63.1289 124.219 63.5207 128.069C63.5893 128.726 64.1695 134.109 64.53 136.51C64.5648 136.757 64.6014 137.042 64.6413 137.351C64.725 138.005 64.7859 138.787 64.8373 139.498C64.8861 140.197 64.9452 140.732 64.9614 141.787C65.0096 146.727 64.3312 151.69 63.6044 156.764C64.167 153.815 63.3182 159.102 63.2853 159.348C63.1413 160.567 63.9624 155.079 63.6643 157.253C63.3126 159.625 62.9408 162.009 62.6319 164.428C62.547 165.095 62.467 165.765 62.3916 166.434C62.6563 163.898 61.9127 169.778 61.8901 170.865C61.7291 170.388 61.0675 184.912 60.9501 187.088C60.914 187.543 61.031 184.558 60.6664 191.486C60.6241 192.237 60.6761 191.955 60.6487 192.347C60.632 192.583 60.4335 193.999 60.383 195.513C60.35 196.048 60.7324 192.729 60.0909 199.728C60.0705 199.927 60.0534 200.14 60.0407 200.358C60.1526 198.552 59.6764 201.765 60.2681 205.29C60.7761 208.848 61.9354 212.904 62.3047 214.152C62.1491 213.66 61.9929 213.153 61.8429 212.653C62.563 215.138 62.6825 215.591 62.8464 216.145C63.529 218.393 64.5741 221.41 65.2935 223.464C66.134 225.853 66.0707 225.891 67.1223 228.648C66.8624 227.996 66.6065 227.349 66.3494 226.691C66.7116 227.676 67.076 228.651 67.4493 229.635C67.8059 230.575 68.1749 231.508 68.5563 232.436C66.8765 227.967 68.9301 233.396 69.1006 233.739C69.3358 234.301 69.0271 233.481 69.4236 234.42C69.4662 234.516 69.3657 234.393 69.9973 235.831C71.3405 238.822 71.1838 238.323 71.7734 239.565C71.831 239.677 71.5968 239.301 72.6482 241.429C76.0891 248.137 72.6335 241.396 72.528 241.124C72.3802 240.773 73.5836 243.064 70.7917 237.296C71.7126 239.242 71.8734 239.403 71.9777 239.622C72.0618 239.821 73.7289 243.148 73.8322 243.325C74.664 244.954 73.8794 243.548 74.0386 243.867C74.1569 244.136 76.3457 248.043 76.7723 249.006C77.9425 250.803 76.2204 247.904 74.5438 244.724C74.3101 244.256 76.2171 247.709 76.3279 247.883C78.8459 252.298 77.3751 249.898 77.8773 250.891C78.1439 251.412 79.2563 253.159 78.2095 251.558C80.5652 255.521 79.175 253.094 79.332 253.347C79.5718 253.728 80.3911 255.115 80.5009 255.285C80.6603 255.534 80.1449 254.643 80.7662 255.631C80.8688 255.794 81.8177 257.419 80.5208 255.371C82.2325 258.119 82.0654 257.91 82.723 258.792C83.784 260.756 83.6748 260.101 84.1561 260.833C85.4421 262.775 84.9697 262.276 85.0309 262.383C85.0711 262.452 85.1388 262.561 85.2291 262.704C86.0872 264.123 89.2838 268.589 90.1683 269.746C89.8468 269.195 87.1248 265.577 86.5883 264.718C84.7282 261.899 89.3384 268.6 88.035 266.518C88.6023 267.373 89.1805 268.223 89.7664 269.065C90.9571 270.52 89.3558 268.397 92.4163 272.406C92.8682 273.101 90.2455 269.577 90.7448 270.304C91.0312 270.741 92.8204 273.052 92.8472 273.104C92.8655 273.164 91.2608 271.065 91.4937 271.409C91.9852 272.2 98.03 279.637 93.4962 273.916C94.765 275.514 95.5204 276.249 96.5885 277.643C97.2661 278.544 93.1926 273.668 99.1304 281.124C99.3101 281.246 96.7928 278.123 96.7232 278.04C96.6362 277.921 97.1952 278.408 97.2783 278.502C97.43 278.68 99.1734 280.855 100.871 283.161C102.407 285.239 103.873 287.508 104.42 288.313C103.965 287.637 108.192 294.57 108.544 295.394C108.652 295.604 108.186 294.854 108.303 295.078C109.049 296.461 111.098 300.197 111.966 301.978C112.946 303.965 112.78 303.734 112.835 303.845C113.259 304.722 112.947 304.008 113.204 304.546C113.613 305.349 116.182 310.986 116.285 311.281C116.319 311.366 115.871 310.458 116.405 311.698C116.492 311.915 116.506 311.748 118.038 315.445C119.862 319.906 116.684 312.384 117.401 314.255C118.679 317.076 118.554 317.019 118.88 317.793C118.988 318.053 119.837 319.961 120.664 322.098C120.68 322.139 120.697 322.181 120.713 322.223C120.697 322.181 120.681 322.139 120.665 322.098C120.082 320.567 119.486 319.04 118.876 317.519C119.355 318.663 120.135 320.632 120.7 322.084C120.879 322.542 121.024 322.951 121.13 323.259C121.328 323.856 121.241 323.338 121.623 324.661C121.673 324.956 121.959 326.06 120.899 322.639C120.761 322.385 121.354 323.979 121.538 324.756C121.566 324.874 121.621 325.347 121.895 326.332C121.89 326.593 121.849 323.824 122.709 330.768C122.73 330.994 122.607 330.215 122.627 330.436C122.649 330.586 122.847 332.369 122.853 332.572C122.867 332.775 122.756 331.91 122.772 332.152C122.851 333.392 123.096 335.014 122.886 332.456C122.977 333.307 123.052 334.164 123.115 335.028C122.967 334.112 123.166 336.38 123.19 337.584C123.295 345.299 123.147 340.133 123.134 341.459C123.081 343.599 123.259 341.961 123.183 345.147C123.17 345.433 123.162 341.803 123.095 348.496C123.092 348.68 123.088 348.873 123.081 349.077C123.089 348.882 123.095 348.689 123.099 348.497C123.118 347.585 123.134 346.688 123.148 345.78C123.198 346.154 123.17 347.426 123.131 348.497C123.105 349.227 123.038 349.854 123.03 349.958C122.713 352.736 123.086 350.866 122.224 354.987C122.138 355.356 121.969 356.17 121.747 356.948C120.84 360.193 122.824 352.637 122.656 352.416C122.843 352.323 120.755 360.451 120.528 360.714C120.196 361.902 121.7 357.062 121.449 357.993C121.581 358.375 117.232 369.775 116.095 371.997C114.946 374.614 114.51 375.819 114.373 375.777C114.156 376.575 113.77 377.166 113.612 377.502C112.381 380.106 111.942 380.998 111.32 382.263C110.994 382.922 110.609 383.686 109.99 384.839C109.601 385.564 109.299 386.198 109.151 386.45C109.064 386.596 109.179 386.299 108.759 387.018C108.221 388.044 104.585 394.008 104.281 394.434C104.023 394.886 105.896 391.961 105.591 392.505C104.247 394.63 102.89 396.626 101.425 398.691C100.814 399.547 101.153 399.124 100.887 399.494C100.783 399.659 98.5905 402.55 98.6664 402.416C98.9558 402.182 105.37 392.985 103.639 395.378C103.317 395.848 102.23 397.543 102.343 397.232C99.3445 401.557 96.1228 405.743 92.6053 409.601C89.434 413.073 85.9345 416.195 82.0988 418.873C85.7673 416.39 89.4233 413.159 92.636 409.629C93.5385 408.642 94.4149 407.637 95.2625 406.633C95.8015 406.01 97.5413 403.834 97.3586 404.122C95.9563 405.896 94.3509 407.812 92.6606 409.652C90.5263 411.981 88.2325 414.139 86.149 415.875C86.0296 415.975 86.4934 415.64 86.0482 416.015C85.2319 416.739 82.3562 418.797 81.8581 419.128C81.7801 419.195 83.4508 418.067 82.9698 418.448C81.7335 419.427 81.2984 419.502 80.1666 420.241C79.3402 420.882 73.205 424.396 71.5406 425.057C69.8368 425.852 76.2008 422.676 75.686 422.838C71.4624 425.095 66.9844 427.101 62.748 428.955C62.6733 428.987 63.3055 428.67 62.3596 429.079C60.7104 429.793 60.3003 430.032 59.499 430.397C59.2498 430.511 58.8143 430.706 58.3084 430.934C57.1121 431.477 55.512 432.145 55.2211 432.279C55.1665 432.305 55.8111 432.093 55.903 432.055C57.2327 431.518 57.6635 431.248 57.785 431.195C57.967 431.113 58.1468 431.037 58.3215 430.964C58.5892 430.851 58.8504 430.743 59.0957 430.633C59.7754 430.327 60.146 430.137 61.0471 429.737C61.6694 429.462 61.0874 429.768 61.6855 429.503C61.9065 429.404 64.2349 428.268 64.4974 428.269C64.5294 428.273 61.8413 429.451 58.349 431.025C52.6476 433.606 44.3512 436.579 43.1116 437.025C44.8095 436.392 46.5038 435.753 48.191 435.103C44.7678 436.429 40.5764 437.845 40.3238 438.071C33.2222 440.645 26.0648 443.113 18.9648 445.841C13.2398 448.062 7.54734 450.421 2.01894 453.221C-0.17395 454.373 1.04702 453.774 -2.52668 455.745C-1.624 455.198 -0.711456 454.666 0.208099 454.149C-0.493858 454.529 -2.1156 455.411 -3.88202 456.477C-6.80037 458.198 -9.90294 460.642 -10.623 461.239C-10.771 461.367 -11.0531 461.456 -12.8077 463.007C-14.3476 464.4 -14.5345 464.686 -15.3148 465.471C-15.9661 466.134 -16.6931 466.882 -16.8782 467.086C-17.0206 467.242 -17.0537 467.326 -17.3929 467.704C-18.4544 468.906 -17.6603 467.874 -18.6302 469.14C-18.3729 468.85 -18.1135 468.563 -17.8519 468.277C-19.1356 469.726 -20.7671 471.796 -18.922 469.634C-18.6003 469.266 -18.899 469.563 -18.6605 469.287C-8.74763 458.971 -16.8665 467.038 -20.0169 470.925C-20.8594 471.901 -25.1038 477.685 -25.1815 477.918C-25.3551 478.2 -24.6385 477.206 -25.508 478.556C-25.7636 478.799 -30.7537 486.933 -28.9147 484.03C-28.5558 483.42 -26.1375 479.534 -25.5014 478.628C-26.8951 480.825 -30.1353 485.967 -30.4522 486.573C-31.8137 488.967 -27.7272 482.037 -30.818 487.416C-33.1401 491.577 -31.0165 487.639 -31.9344 489.226C-32.4637 490.113 -34.9248 494.902 -34.9346 494.732C-35.7973 496.364 -35.2517 495.43 -35.3538 495.634C-35.3958 495.717 -35.7219 496.336 -36.1201 497.101C-36.6649 498.151 -37.3616 499.463 -37.6708 500.065C-37.735 500.191 -37.4812 499.823 -37.5462 499.954C-37.6665 500.213 -39.3394 503.246 -39.4187 503.361C-39.4646 503.438 -39.0995 502.694 -39.2747 502.985C-39.4713 503.33 -41.1237 506.222 -41.2349 506.37C-41.3738 506.589 -39.3126 503.03 -39.7003 503.598C-40.6142 505.257 -42.2241 507.897 -42.9141 508.947C-42.7428 508.69 -41.7917 507.114 -41.4725 506.561C-41.6798 506.786 -43.728 510.169 -42.9782 509.043C-43.4525 509.762 -43.1605 509.251 -43.4377 509.649C-43.5109 509.756 -44.1508 510.795 -44.2868 510.99C-44.3048 511.015 -43.6662 509.925 -43.8113 510.132C-44.0711 510.51 -46.0228 513.67 -46.1796 513.933C-46.6148 514.672 -44.994 512.108 -44.8361 511.91C-44.8113 511.88 -46.1219 514.105 -46.1383 514.141C-46.1687 514.298 -44.6894 511.837 -44.82 512.144C-45.1856 512.755 -45.549 513.361 -45.915 513.97C-44.4169 511.672 -41.805 507.353 -41.1103 506.258C-43.1709 509.725 -45.4396 513.324 -45.3161 513.388C-45.2664 513.415 -44.3172 511.946 -44.3397 512.009C-44.4312 512.255 -45.7617 514.293 -45.807 514.371C-45.8437 514.436 -45.8592 514.466 -45.8567 514.468C-45.8294 514.481 -43.9835 511.548 -43.8828 511.407C-43.7082 511.171 -44.4366 512.539 -44.4153 512.545C-44.3826 512.503 -43.0668 510.415 -43.4712 511.144C-43.8799 511.883 -45.0188 513.72 -45.0545 513.784C-45.2534 514.15 -43.2426 510.946 -43.1753 510.857C-43.1363 510.809 -44.167 512.559 -44.1881 512.615C-44.2051 512.666 -43.3696 511.367 -43.0193 510.87C-42.7572 510.499 -43.4296 511.634 -43.3047 511.44C-43.2111 511.301 -41.3536 508.254 -41.2647 508.103C-41.1238 507.883 -41.5245 508.618 -41.4544 508.518C-41.354 508.376 -40.7744 507.381 -40.8405 507.516C-40.8808 507.622 -43.1017 511.502 -43.0658 511.492C-42.9892 511.478 -40.6277 507.372 -42.7445 511.243C-42.7589 511.269 -43.3349 512.174 -43.3505 512.202C-43.6652 512.785 -41.8039 509.891 -44.0264 513.462C-39.8609 506.838 -43.4424 512.677 -42.7585 511.74C-42.4906 511.379 -40.8998 508.795 -40.8913 508.783C-41.0045 509.059 -41.5357 509.869 -41.6883 510.161C-41.7699 510.323 -40.3255 508.021 -40.6157 508.56C-40.7613 508.842 -42.2668 511.302 -42.3292 511.404C-42.9022 512.39 -42.1425 511.215 -42.2566 511.44C-42.3307 511.588 -43.2446 513.069 -43.2669 513.109C-43.3 513.174 -42.0117 511.194 -41.739 510.783C-41.5305 510.471 -42.2449 511.682 -42.1032 511.463C-41.2417 510.144 -39.6013 507.219 -41.1505 510.057C-41.2446 510.229 -41.8854 511.271 -41.9026 511.301C-42.2632 511.965 -41.0852 510.05 -40.8505 509.722C-40.4433 509.16 -42.1504 511.908 -40.7198 509.63C-41.7344 511.374 -42.3266 512.327 -43.5785 514.326C-40.1183 508.79 -38.8071 506.881 -42.599 513.068C-41.3889 511.105 -41.4555 511.364 -41.0946 510.777C-40.8661 510.415 -39.2118 507.496 -39.8452 508.91C-39.9235 509.089 -41.0038 510.815 -40.6334 510.294C-38.1217 506.095 -40.5503 510.224 -40.5514 510.228C-40.3808 510.27 -35.0431 500.851 -33.8279 498.28C-33.7599 498.148 -33.7017 498.036 -33.6545 497.946C-32.5599 495.849 -31.5001 494.037 -31.2579 493.586C-30.4605 492.099 -31.1603 493.313 -30.9959 492.973C-30.8392 492.621 -28.4468 488.469 -28.3203 488.268C-27.8751 487.455 -28.3874 488.246 -28.3416 488.161C-27.8259 487.13 -24.4656 481.661 -23.4454 480.19C-23.4574 480.248 -25.406 483.274 -24.1439 481.415C-22.6613 479.261 -22.6772 479.071 -22.6481 479.007C-17.2205 471.063 -10.6049 463.836 -2.39887 458.961C-0.406235 457.771 1.64597 456.662 3.729 455.617C3.64466 455.707 -0.492218 457.828 -2.38271 458.988C-2.95334 459.326 -3.32892 459.563 -3.36229 459.586C-3.54996 459.722 -3.14453 459.47 -2.36711 459.014C0.286446 457.346 7.6979 453.738 8.8689 453.247C7.74899 453.769 6.63197 454.306 5.52877 454.856C7.45787 454.007 11.678 452 14.5344 450.883C15.4558 450.518 13.7116 451.273 13.7484 451.262C14.7866 450.866 16.4341 450.172 15.1782 450.632C17.715 449.652 17.3273 449.759 19.2692 448.994C19.3705 448.955 18.5493 449.311 20.0816 448.733C20.0852 448.732 20.0889 448.73 20.0925 448.729C20.8106 448.45 24.6748 447.009 25.2076 446.853C25.4255 446.786 23.5077 447.641 23.2255 447.619C19.053 449.251 21.8572 448.074 20.2374 448.694C20.1635 448.723 20.1653 448.728 20.0937 448.764C19.9221 448.853 19.3473 449.088 16.4924 450.205C16.9481 450.094 18.6001 449.438 20.1232 448.841C21.3168 448.372 22.447 447.934 22.8013 447.809C23.7381 447.479 22.032 448.135 20.1351 448.872C18.5946 449.469 16.9236 450.123 16.35 450.309C16.9725 450.162 15.8674 450.512 14.3561 451.14C12.7037 451.83 13.4328 451.558 12.5425 451.933C10.1061 452.977 11.088 452.479 9.11776 453.419C10.981 452.376 5.69845 454.926 4.21948 455.756C6.701 454.532 9.2289 453.393 11.7909 452.304C11.6477 452.376 11.5052 452.448 11.3635 452.52C12.0387 452.227 12.7066 451.942 13.3859 451.656C13.2731 451.693 13.1608 451.73 13.0488 451.767C16.5613 450.366 17.4066 449.984 17.691 449.865C18.4866 449.548 19.3033 449.227 20.1463 448.901C23.2017 447.717 26.5179 446.515 29.5024 445.442C30.0722 445.238 29.697 445.433 33.847 443.901C35.1699 443.413 33.9013 443.815 35.409 443.285C37.3377 442.733 37.2677 442.649 37.8282 442.449C39.4369 441.874 40.4304 441.55 40.5798 441.496C42.57 440.787 45.4767 439.726 47.6596 438.917C47.7007 438.903 46.5799 439.362 47.9912 438.824C48.4878 438.632 52.8913 436.826 56.7737 435.266C55.779 435.693 54.7632 436.115 53.7648 436.523C54.4601 436.241 57.6572 434.97 59.7119 434.059C61.112 433.446 61.9991 433.076 61.1958 433.452C60.828 433.624 60.3038 433.853 59.7314 434.102C58.3942 434.687 56.8543 435.294 56.6404 435.461C57.2239 435.211 58.3236 434.752 59.7377 434.116C64.9688 431.822 74.6124 427.516 75.4773 426.913C75.6349 426.829 74.6403 427.3 74.8582 427.184C75.0334 427.111 78.3988 425.323 78.8228 425.038C79.0815 424.884 77.6037 425.695 77.7156 425.615C77.8311 425.581 81.9262 423.129 82.1599 422.981C81.1753 423.622 78.3379 425.302 79.8459 424.455C80.0423 424.346 81.0103 423.725 81.243 423.583C83.4128 422.322 76.9975 426.21 75.9348 426.659C80.1392 424.599 86.2871 420.539 90.3335 416.843C91.9633 415.346 87.8326 418.966 89.6985 417.294C93.491 413.768 90.7561 416.409 90.8829 416.305C91.8896 415.486 94.8056 412.221 94.8937 412.301C95.004 412.179 95.1014 412.071 95.1886 411.973C96.0798 410.961 95.8885 411.177 97.4674 409.372C97.2514 409.641 97.0326 409.91 96.8126 410.178C98.8382 408.052 102.41 403.031 102.104 403.382C101.334 404.354 99.4037 406.91 99.2214 407.118C98.9493 407.423 98.1981 408.241 95.3191 411.645C94.0637 412.961 99.8882 406.278 97.2118 409.295C99.1022 407.313 105.665 398.291 106.503 396.919C106.611 396.761 106.212 397.568 107.677 395.231C108.368 394.12 106.648 396.765 106.955 396.25C107.418 395.467 111.089 390 114.198 383.677C117.362 377.308 120.436 370.392 121.319 368.149C121.435 367.864 121.365 367.957 121.478 367.678C121.837 366.818 123.105 363.653 123.615 362.055C122.534 365.359 124.765 358.983 125.115 357.262C125.74 354.69 125.611 354.834 125.817 353.703C126.065 352.217 126.297 350.423 126.338 348.554C126.419 345.106 126.468 341.467 126.348 339.259C126.485 339.445 126.169 333.456 125.806 330.718C125.587 328.577 125.061 325.449 125.616 328.338C125.227 325.866 124.627 323.297 123.708 320.916C123.274 319.788 122.838 318.677 122.415 317.619C122.204 317.092 122.464 317.83 122.103 316.93C122.071 316.848 122.058 316.724 121.746 315.952C119.131 309.601 120.339 312.717 119.822 311.542C119.526 310.887 119.308 310.402 119.15 310.047C120.759 313.712 122.471 318 122.92 319.149C122.486 318.189 119.578 310.934 118.597 308.861C118.564 308.789 118.638 309.059 118.605 308.985C118.604 308.984 118.603 308.982 118.603 308.981C118.267 308.191 115.98 303.224 116.496 304.225C116.637 304.493 117.712 306.77 118.912 309.503C118.593 308.76 118.881 309.293 118.825 309.162C118.155 307.568 116.334 303.741 115.666 302.393C115.515 302.084 115.552 302.093 115.528 302.043C114.923 300.816 115.093 301.357 114.55 300.061C113.358 297.886 116.581 304.235 116.281 303.822C116.21 303.433 108.865 289.414 108.787 289.495C108.751 289.452 108.63 289.27 108.389 288.895C107.872 288.047 105.485 284.317 105.04 283.689C104.97 283.581 105.067 283.577 104.977 283.445C104.879 283.303 104.234 282.384 103.409 281.284C102.333 279.845 100.953 278.1 100.267 277.193C100.949 278.035 101.629 278.883 102.299 279.741C98.2661 274.564 98.8867 275.385 100.27 277.061C100.338 277.146 100.406 277.228 100.471 277.309C101.538 278.619 102.873 280.346 102.896 280.37C103.029 280.393 96.1175 271.738 97.3908 273.454C97.5643 273.686 100.795 277.661 99.1666 275.715C98.8809 275.373 96.8397 272.808 96.7311 272.679C95.9744 271.802 100.419 277.423 99.8267 276.78C98.7812 275.38 97.3548 273.664 96.1308 272.101C95.5742 271.39 95.4694 271.189 95.4015 271.102C94.3835 269.788 94.9264 270.549 94.5849 270.11C94.3959 269.879 92.4924 267.222 92.7667 267.789C86.5853 258.999 90.9617 265.409 95.0445 270.614C93.7804 268.948 91.3182 265.688 90.29 264.174C89.9152 263.63 90.1736 263.932 89.5508 263.012C89.268 262.591 88.7423 261.817 88.0974 260.832C85.8031 257.37 82.0257 251.331 80.9188 249.41C81.7967 250.926 81.4958 250.51 80.812 249.342C80.1327 248.172 80.7584 249.123 80.6311 248.891C80.4719 248.655 77.3481 243.141 76.896 242.189C79.129 246.401 78.5683 245.482 76.6673 241.909C76.926 242.433 77.1882 242.957 77.4532 243.479C76.3258 241.39 74.0656 236.947 73.5353 235.685C73.4487 235.488 73.8058 236.173 73.7573 236.062C73.2492 234.974 71.6101 231.237 71.566 231.051C71.5131 230.899 72.209 232.493 71.976 231.891C71.927 231.765 71.2333 230.237 70.6611 228.688C70.6218 228.583 70.5955 228.507 70.5783 228.454C70.5008 228.216 70.6034 228.419 70.56 228.299C70.1205 227.075 70.3268 227.817 69.5177 225.589C68.9309 223.957 68.5477 222.72 67.7566 220.462C70.431 227.86 68.1704 221.644 67.1774 218.512C67.0231 218.011 67.2022 218.425 66.244 215.438C68.1425 221.847 65.5695 213.643 65.1723 211.954C65.1477 211.862 65.0919 211.835 64.8769 211.013C64.8596 210.944 64.9098 211.031 64.7193 210.265C63.1098 202.951 64.129 207.627 63.8015 206.246C63.6427 205.66 63.2284 202.092 63.3102 201.2C63.3164 200.995 63.2664 201.077 63.3173 200.285C63.3236 200.205 63.3308 200.126 63.3386 200.05C63.4904 198.572 63.6266 197.253 63.7043 196.268C63.7124 196.145 63.6713 196.137 63.8232 194.153C63.8652 193.593 63.9222 192.973 63.8847 193.763C63.8089 195.331 63.6192 197.736 63.3796 200.054C63.2415 201.412 63.3595 202.865 63.5127 203.995C63.8094 205.82 63.1804 202.208 63.4337 200.06C63.5373 199.031 63.6072 198.209 63.6188 198.077C63.6335 197.915 63.463 199.586 63.6065 197.885C63.7289 196.436 64.0008 193.795 64.1084 191.639C64.1176 191.476 64.1454 189.751 64.1363 189.83C64.131 189.902 63.9605 192.543 63.9619 192.158C63.9632 192.112 64.0625 190.431 64.0588 190.213C64.0555 189.944 63.9139 189.21 63.9287 188.853C63.9671 187.932 63.9763 188.533 64.0052 187.94C64.0675 186.664 64.2415 182.25 64.3139 182.112C64.2787 182.839 64.2442 183.568 64.21 184.297C64.4294 180.245 64.3667 181.974 64.4087 181.401C64.4554 180.785 64.3895 180.954 64.4617 179.591C64.4675 179.292 64.849 173.598 64.8769 173.706C64.6146 176.848 64.7706 175.688 64.7599 175.832C64.7275 176.384 64.6437 177.086 64.5993 177.827C64.3001 183.041 64.6665 177.786 64.6105 179.018C64.5908 179.441 64.5103 180.285 64.5021 180.464C64.475 181.049 64.5175 181.061 64.4928 181.451C64.4355 182.361 64.4323 181.295 64.4253 181.367C64.342 182.178 64.2231 185.372 64.3929 183.389C64.3543 184.583 64.267 184.718 64.2498 185.667C64.2155 187.552 64.3457 184.731 64.3961 183.969C64.58 181.234 64.5824 180.419 64.8352 176.559C64.9276 175.169 65.0871 173.529 65.1402 172.887C65.164 172.48 65.3678 168.653 65.6002 168.563C65.6874 167.542 65.7711 166.119 65.8922 164.838C65.9459 164.265 66.0073 163.714 66.0745 163.24C66.27 161.877 66.2855 162.321 66.3058 162.194C66.3371 162 66.5723 160.346 66.667 159.785C66.7766 159.131 66.7568 159.461 66.923 158.419C67.3361 155.82 67.2452 155.872 67.2795 155.603C67.6557 152.472 67.5707 153.852 67.6733 153.159C67.8407 152.537 68.6788 143.343 68.4801 141.324C68.4833 142.133 68.465 142.93 68.4302 143.731C68.4234 142.301 68.4501 140.774 68.3612 140.747C68.4941 140.481 68.2684 137.951 68.0619 136.835C68.0463 136.738 68.0331 136.652 68.0227 136.58C67.9754 136.249 68.0024 136.272 67.9442 135.856C67.7068 134.238 67.2689 130.545 67.1886 129.647C66.819 125.785 67.9776 135.635 68.1591 136.367C67.8823 134.863 66.9747 126.063 67.4777 130.099C67.5555 130.722 67.6186 131.833 67.6575 132.182C67.9239 134.544 67.7565 132.682 67.7838 132.866C67.8282 133.18 67.9708 134.735 68.0348 135.141C68.0579 135.275 67.9774 134.399 68.3002 136.627C68.1485 135.541 67.3817 129.214 67.317 128.362C67.287 128.059 67.6 129.936 66.9027 124.453C66.9194 124.516 66.9362 124.579 66.9529 124.642C66.6176 121.578 66.2308 118.495 65.7145 115.424C65.7496 115.761 65.9881 117.492 65.6384 115.32C65.6127 115.165 65.593 115.043 65.5784 114.948C65.4824 114.308 65.6342 114.969 65.6191 114.873C65.0784 113.955 63.7505 94.2099 62.7295 90.2519C62.522 88.9302 61.6953 85.2649 61.5959 84.9916C61.2457 83.3056 59.123 77.5779 58.5318 76.5002C58.5284 76.4927 58.5251 76.4854 58.5219 76.4782C58.2277 75.8311 58.5551 76.4401 58.2735 75.8407C58.0066 75.2783 58.2452 75.8789 58.1649 75.7123C57.6895 74.2432 51.8833 64.1112 49.9816 62.0524C51.1162 63.3274 55.5286 70.5293 55.3354 70.4412C55.3192 70.4082 54.2652 68.652 54.0521 68.2871C53.6678 67.7048 52.4707 65.6233 51.7041 64.5649C51.614 64.4479 51.9144 64.9458 50.5513 63.0596C50.0803 62.412 48.8635 60.6975 47.472 59.1077C46.852 58.3454 45.3456 56.5667 43.4388 54.597C39.5738 50.6108 34.7854 44.8714 34.2893 44.3089C34.2726 44.2819 35.7544 45.9437 34.784 44.7939C33.4851 43.2677 34.5948 44.692 33.0269 42.9537C32.8316 42.6645 28.2864 37.9275 28.0862 37.8135C26.6965 36.3748 30.8446 40.3754 30.76 40.34C30.6614 40.1619 27.2505 36.8002 27.0765 36.6964C26.9397 36.5745 29.7471 39.288 26.3144 36.0865C26.7235 36.4377 27.1257 36.7905 27.5288 37.152C25.9166 35.6363 25.7012 35.5627 25.2979 35.2126C24.7112 34.7154 24.117 34.1972 23.4204 33.6267C22.6203 32.9717 21.7017 32.2459 20.5425 31.4282C19.9753 31.0287 20.8663 31.7581 20.7953 31.7095C20.1114 31.2307 19.3336 30.4981 18.2831 29.8109C18.2012 29.7624 20.512 31.535 16.4264 28.5004C16.7126 28.7011 17.0001 28.9037 17.2852 29.1055C16.7253 28.6519 12.5593 25.6344 11.9894 25.2472C10.3365 24.093 11.7397 25.1516 10.0889 23.9801C11.1923 24.6623 6.17091 21.1218 6.4259 21.3784C6.19595 21.1804 5.5124 20.685 4.64146 20.0615C3.03139 18.9054 0.744461 17.3561 -0.578194 16.4612C-1.86449 15.5828 -4.49028 13.7971 -4.90755 13.5318C-5.41667 13.2041 -5.29039 13.3527 -6.20932 12.7689C-6.47133 12.6013 -9.16476 10.804 -11.6127 9.35368C-12.084 9.07308 -13.1234 8.54408 -12.2623 9.10379C-10.7908 10.0559 -7.95544 11.774 -8.02321 11.8003C-8.09328 11.8191 -11.8451 9.40037 -12.8792 8.78479C-17.6394 5.93005 -14.9378 7.65293 -15.0654 7.59343C-15.4088 7.4354 -18.0088 5.89643 -18.1309 5.83636C-18.593 5.58781 -16.7556 6.70462 -16.7432 6.74833C-16.7268 6.79603 -19.2866 5.38365 -18.7183 5.72974C-17.8982 6.21798 -15.5651 7.53849 -15.4209 7.63197C-13.5423 8.80806 -16.1848 7.31068 -16.93 6.92461C-17.1559 6.80587 -16.2933 7.34208 -16.4769 7.23777C-19.2699 5.659 -17 6.78287 -18.8499 5.72117C-20.5134 4.77904 -18.4082 6.0517 -18.4769 6.01832C-18.558 5.97159 -20.5301 4.84773 -20.863 4.6892C-21.0048 4.59629 -15.9428 7.66125 -16.1902 7.59217C-17.8056 6.61533 -19.4329 5.65693 -21.0784 4.72607C-21.237 4.70605 -18.8423 6.00939 -18.6125 6.15647C-18.1318 6.44988 -19.5055 5.69366 -19.4622 5.74359C-19.4288 5.77622 -17.8643 6.73325 -19.3131 5.91946C-19.8217 5.63692 -20.8359 4.9956 -22.6995 4.03485C-16.3696 7.63178 -20.7896 5.20372 -20.9873 5.11405C-21.1733 5.03559 -18.1863 6.77524 -21.849 4.71159C-22.0669 4.73576 -21.7963 4.78224 -20.755 5.39233C-19.4969 6.14351 -22.4528 4.47952 -17.7968 7.13766C-18.0835 7.02351 -21.8261 4.88342 -22.028 4.7935C-22.1998 4.70314 -21.3831 5.18828 -21.6841 5.03276C-25.2784 3.19982 -22.8239 4.4798 -23.8868 3.98853C-23.9642 3.94094 -27.38 2.2242 -24.8039 3.55623C-20.1375 6.03936 -18.222 7.15545 -17.5459 7.74326C-20.9403 5.80585 -25.0571 3.47923 -26.1317 2.96232C-27.7476 2.16067 -26.0894 3.01886 -26.2931 2.93063C-26.3553 2.89887 -27.7747 2.2083 -27.7857 2.21106C-28.8382 1.79036 -21.5614 5.33426 -19.4018 6.69853C-20.0053 6.37411 -20.6035 6.05688 -21.2123 5.73858C-20.4057 6.19209 -19.6002 6.65411 -18.803 7.11862C-22.6484 4.95855 -18.9408 7.0449 -18.0508 7.70373C-17.8468 7.85149 -20.3283 6.34827 -17.5133 8.07988C-19.6209 6.8604 -18.9585 7.27062 -20.8593 6.15116C-20.8288 6.20355 -16.5601 8.73612 -14.9089 9.78867C-20.8685 6.28382 -17.3802 8.12814 -22.6266 5.26962C-23.5718 4.68723 -21.0813 6.07239 -21.2796 5.95675C-21.9899 5.52224 -23.7267 4.60519 -25.7655 3.44086C-26.1007 3.25261 -24.6214 3.92707 -26.7738 2.85531C-27.0211 2.72913 -28.4179 2.12464 -28.4055 2.13883C-28.2281 2.25692 -26.8655 2.89193 -26.8103 2.94098C-26.769 2.97332 -28.2788 2.24195 -28.2962 2.24438C-28.3558 2.26569 -27.0339 2.86013 -27.229 2.78562C-27.6534 2.60835 -33.1876 0.149535 -26.0245 3.49961C-31.9341 0.618279 -26.7339 3.01449 -24.4803 4.26067C-23.9133 4.56644 -23.7615 4.67883 -22.9588 5.12639C-21.9044 5.71452 -20.6827 6.39012 -20.144 6.70505C-19.5699 7.04567 -22.8897 5.20142 -18.1269 7.93709C-20.5636 6.56755 -24.8441 4.10371 -27.3332 2.97796C-32.3456 0.726915 -23.9077 4.7298 -23.1068 5.30378C-22.8808 5.42939 -23.6608 5.05007 -23.5102 5.13462C-23.2538 5.2511 -18.6124 7.85875 -18.1832 8.17109C-17.7457 8.4633 -19.8692 7.1834 -20.0265 7.13624C-20.1302 7.07933 -14.6193 10.3975 -17.6178 8.63264C-19.6807 7.40296 -23.4942 5.1771 -24.2017 4.92806C-21.1061 6.58993 -18.058 8.38379 -15.0531 10.2237C-16.721 9.25015 -18.3977 8.29556 -20.0864 7.36765C-16.6698 9.3496 -13.7299 11.1074 -10.5807 13.1677C-18.2976 8.46579 -8.14177 14.7989 -8.05963 14.9164C-8.02449 14.9445 -11.07 13.1035 -11.5661 12.818C-8.89986 14.5008 -0.953621 19.8369 -5.68022 16.8306C-4.81096 17.3704 -2.81532 18.7941 -2.84117 18.7846C-3.12144 18.6448 -7.57652 15.6497 -6.87567 16.1749C-6.0551 16.7791 -4.83453 17.4966 -3.53941 18.3762C0.32061 21.009 1.22354 21.7949 2.631 22.8795C3.64616 23.6677 4.92152 24.6133 7.68023 26.5284C7.54397 26.4446 7.40657 26.3599 7.26991 26.2758C12.003 29.5809 16.6588 32.9084 21.1216 36.4886C23.4009 38.3108 25.5483 40.2714 27.5973 42.3644C29.9334 44.7447 35.6959 51.7617 38.8216 55.1125C39.1084 55.4239 39.9341 56.3026 40.7757 57.1598C41.7057 58.1045 42.5965 59.0738 42.7164 59.2024C43.1389 59.6357 40.8917 57.1836 41.9314 58.2688C42.2185 58.4425 46.9135 64.0679 46.4994 63.7259C46.0074 63.07 44.4044 61.0636 44.1152 60.7564C43.1409 59.7106 46.1968 63.0666 49.0755 67.3767C52.0095 71.6519 54.5625 76.9409 55.0462 78.0746C55.0821 78.1549 55.1078 78.2136 55.1227 78.2491C55.0947 78.1922 55.0665 78.1352 55.0382 78.0783C54.8437 77.6866 54.6466 77.2974 54.4462 76.9096C54.6367 77.3022 54.8238 77.6959 55.0083 78.092C55.4214 78.979 55.8037 79.8706 56.1609 80.7779ZM16.0762 28.0127C15.3928 27.452 13.5785 26.1877 12.5242 25.4249C11.0668 24.3657 8.67435 22.4671 9.64493 23.3703C11.7923 24.897 13.944 26.4353 16.0762 28.0127ZM43.8982 54.888C43.7426 54.7288 43.6189 54.6061 43.5242 54.5149C43.1892 54.1925 43.2329 54.2792 43.4774 54.5599C43.7158 54.832 44.1323 55.2808 44.5717 55.7292C44.6844 55.8484 45.5937 56.6469 43.8982 54.888ZM31.5219 41.15C31.5741 41.2036 32.6295 42.3422 32.6647 42.3821C33.6387 43.3763 30.4546 39.9499 31.5219 41.15ZM66.5041 121.48C66.2589 119.53 66.5359 120.931 66.6452 122.147C66.6522 122.224 66.5202 121.608 66.5041 121.48ZM66.323 120.093C66.048 118.591 65.7348 115.516 66.0894 117.943C66.1267 118.18 66.3393 120.164 66.323 120.093ZM39.6474 50.3389C39.7527 50.5083 40.965 51.8435 41.4898 52.4003C41.4941 52.3665 40.143 50.91 39.6474 50.3389ZM62.7525 90.6051C62.8101 90.6808 61.3959 84.3236 61.2153 83.9021C61.5643 84.8819 62.8141 90.5243 62.7525 90.6051ZM64.5397 106.883C64.5186 106.727 64.3302 104.559 64.3586 104.619C64.4787 105.679 64.6263 107.594 64.5397 106.883ZM68.5664 138.902C68.5458 139.023 68.3723 137.334 68.6402 141.373C68.6726 141.966 68.6409 139.847 68.6463 140.054C68.6794 140.497 68.6956 140.846 68.7043 141.128C68.6789 139.242 68.4305 137.261 68.3877 137.068C68.2313 136.174 68.5908 138.852 68.5664 138.902ZM67.3631 156.166C67.2889 156.535 66.9529 158.895 66.8825 159.43C66.8707 159.522 66.9889 159.131 66.828 160.188C66.6994 161.036 66.8245 159.76 66.5926 161.413C66.3618 163.08 66.7261 160.861 66.7091 161.006C66.6814 161.204 66.2908 163.769 66.3406 163.696C66.3703 163.639 66.7444 160.884 66.8548 160.197C66.9919 159.32 66.8774 160.393 67.0859 158.923C67.2168 157.999 67.0645 158.499 67.0896 158.303C67.1126 158.143 67.6251 154.906 67.3626 156.171C67.3627 156.169 67.3629 156.168 67.3631 156.166ZM68.7119 141.637C68.7122 141.495 68.7103 141.329 68.7043 141.128C68.7079 141.298 68.7103 141.468 68.7119 141.637ZM20.1725 31.1218C20.9232 31.6672 18.7582 29.9674 17.904 29.376C17.8763 29.3818 20.0555 31.0308 20.1725 31.1218ZM68.6465 143.374C68.571 146.14 68.7232 144.118 68.7119 141.637C68.7065 142.425 68.653 142.444 68.6465 143.374ZM54.0521 68.2871C54.1171 68.3831 54.1628 68.4414 54.1802 68.4417C54.0088 68.1893 53.9868 68.1708 54.0521 68.2871ZM57.1741 73.8812C58.1166 75.8636 56.1153 71.8796 56.1337 71.9006C56.1565 71.9035 57.1426 73.7991 57.1741 73.8812ZM66.8049 123.977C66.7764 123.78 66.9934 126.848 66.5832 122.406C66.8773 124.77 66.5999 122.272 66.6143 122.307C66.6678 122.401 67.0796 126.376 67.182 127.246C67.1946 127.939 66.8965 124.626 66.8054 123.982C66.8053 123.981 66.8051 123.979 66.8049 123.977ZM64.5461 186.381C64.6101 185.846 64.6866 184.139 64.7451 182.991C64.6807 183.526 64.604 185.23 64.5461 186.381ZM49.3694 438.32C56.7981 435.506 57.6888 434.952 50.9407 437.664C50.8101 437.717 48.913 438.477 49.3694 438.32ZM104.772 399.941C105.153 399.288 103.717 401.322 102.76 402.65C102.546 402.951 101.776 404.087 102.722 402.841C102.633 402.836 104.039 400.871 104.772 399.941ZM68.5568 144.935C68.4893 145.737 68.3448 148.194 68.2125 149.474C68.3347 148.697 68.5319 146.089 68.5568 144.935ZM73.2985 427.932C74.0541 427.557 74.5882 427.348 74.46 427.418C73.8861 427.733 72.4481 428.38 73.2985 427.932ZM68.2333 136.856C68.2311 136.745 68.5394 140.086 68.5733 140.312C68.5653 139.605 68.2876 136.935 68.2333 136.856ZM64.6399 184.211C64.6525 183.717 64.497 186.272 64.4689 187.049C64.4994 186.989 64.6314 184.534 64.6399 184.211ZM85.0804 421.007C85.7044 420.559 87.2127 419.394 87.3899 419.273C87.6184 419.142 85.396 420.842 85.0804 421.007ZM-29.5467 490.934C-29.5854 491.018 -28.132 488.557 -27.5059 487.455C-26.3327 485.35 -29.5243 490.827 -29.5467 490.934ZM66.0717 431.217C63.9383 432.213 66.3094 431.115 66.2381 431.206C64.7856 431.848 61.194 433.427 63.6432 432.292C64.1206 432.071 65.3951 431.519 66.0717 431.217ZM68.0527 430.318C68.2924 430.232 69.8673 429.583 68.5237 430.184C67.9004 430.462 66.8751 430.849 68.0527 430.318ZM-20.1224 476.048C-18.9793 474.317 -24.4338 482.09 -24.4933 482.388C-24.5673 482.512 -24.6144 482.595 -24.6402 482.642C-24.8434 482.927 -25.7948 484.457 -25.8671 484.657C-25.5909 484.193 -24.8083 482.944 -24.7191 482.799C-24.6813 482.735 -24.6533 482.688 -24.6346 482.655C-24.3099 482.104 -20.399 476.333 -20.1224 476.048ZM-9.61543 464.522C-11.4334 466.006 -11.6277 466.412 -11.4826 466.27C-9.56845 464.582 -10.8552 465.64 -10.8021 465.582C-10.6792 465.451 -9.28517 464.293 -9.62102 464.527C-9.61916 464.525 -9.61729 464.524 -9.61543 464.522ZM-18.1707 473.492C-18.2375 473.563 -19.4572 475.127 -19.5009 475.197C-20.4698 476.502 -17.0134 472.081 -18.1707 473.492ZM65.5985 168.734C65.4727 170.164 65.6496 168.765 65.7333 167.817C65.7406 167.739 65.7143 167.474 65.5985 168.734ZM69.1191 429.852C69.4401 429.766 77.2444 425.906 76.7872 426.139C76.1618 426.59 67.2369 430.805 69.1191 429.852ZM114.065 384.442C113.424 385.706 114.069 384.57 114.438 383.795C114.47 383.726 114.501 383.661 114.529 383.6C114.591 383.463 114.521 383.583 114.412 383.783C114.303 383.984 114.154 384.267 114.065 384.442ZM67.6135 132.655C67.4678 131.101 67.3859 131.436 67.5847 132.774C67.5925 132.827 67.6193 132.716 67.6135 132.655ZM107.972 395.094C110.803 390.624 110.049 391.639 106.331 397.411C106.459 397.238 106.586 397.064 106.713 396.891C102.253 403.445 106.456 397.372 107.504 395.736C107.91 395.119 107.602 395.658 107.969 395.099C107.97 395.097 107.971 395.096 107.972 395.094ZM117.54 377.22C119.518 372.623 115.65 381.177 114.331 383.743C114.317 383.772 114.303 383.801 114.289 383.829C114.303 383.801 114.318 383.772 114.333 383.744C115.563 381.37 117.004 378.351 115.018 382.596C118.044 376.357 116.729 378.916 116.849 378.67C116.985 378.372 117.454 377.42 117.54 377.22ZM111.51 389.189C111.365 389.444 110.27 391.378 109.846 392.057C110.485 391.137 112.505 387.499 111.51 389.189ZM4.14918 455.759C3.9707 455.808 3.55722 455.97 2.05342 456.772C2.52749 456.544 3.50313 456.061 4.14918 455.759ZM14.6018 27.1944C13.63 26.4934 11.6808 25.1289 12.2995 25.5181C12.3671 25.5589 14.6136 27.1712 14.6018 27.1944ZM90.5983 416.41C90.8406 416.289 95.5478 411.509 93.9554 413.192C93.5343 413.75 89.0424 417.906 90.5983 416.41ZM60.8938 433.461C61.3948 433.236 63.4269 432.35 63.4764 432.339C63.6237 432.308 61.1262 433.389 60.8938 433.461ZM9.6653 23.7359C9.53336 23.648 6.56407 21.5525 6.90271 21.7667C7.54076 22.1733 10.1135 24.0335 9.6653 23.7359ZM65.0631 173.936C65.0394 174.237 65.0532 174.639 65.0463 174.744C65.019 174.986 64.6651 180.519 64.8476 178.408C64.8554 178.05 65.4027 170.108 65.5352 169.089C65.5106 168.685 65.2579 172.068 65.196 172.894C65.1838 173.039 65.1272 173.128 65.0635 173.933C65.0634 173.934 65.0632 173.935 65.0631 173.936ZM-3.58589 460.019C-3.85887 460.036 -8.98889 463.793 -8.8532 463.849C-7.17342 462.466 -5.41606 461.183 -3.58589 460.019ZM-0.810326 458.346C0.0580063 457.833 -1.22861 458.539 -2.27521 459.168C-2.65128 459.393 -2.99553 459.608 -3.20393 459.742C-3.20169 459.754 -2.76624 459.487 -2.2618 459.19C-1.63485 458.82 -0.905373 458.402 -0.810326 458.346ZM72.1986 428.241C72.8026 427.964 70.9796 428.889 71.3968 428.702C71.6656 428.585 72.9976 427.927 73.4303 427.73C73.5544 427.677 72.2105 428.386 71.8129 428.569C71.2486 428.832 71.7779 428.539 71.1629 428.827C69.1225 429.779 67.3138 430.61 65.3966 431.452C65.2228 431.529 66.5548 430.912 65.0787 431.562C64.8506 431.663 63.4947 432.3 61.7355 433.07C61.01 433.365 60.3281 433.652 59.6594 433.942C56.6547 435.237 53.9789 436.392 49.8266 437.93C50.0147 437.853 53.788 436.359 54.0118 436.26C55.5485 435.639 57.5456 434.824 59.6334 433.884C63.2034 432.275 67.2094 430.56 69.9578 429.292C71.0693 428.78 70.541 429.053 71.0194 428.832C71.3966 428.656 70.9282 428.824 72.1986 428.241ZM15.1005 27.5899C14.6095 27.2946 13.0035 26.1009 11.9604 25.3667C12.3537 25.5883 14.0833 26.8636 15.1005 27.5899ZM25.8074 446.647C26.3983 446.432 28.2535 445.745 28.4119 445.704C28.6173 445.65 25.9379 446.634 25.8074 446.647ZM63.6659 204.902C63.6665 204.961 63.9148 206.422 63.9322 206.475C64.1911 207.769 63.4612 203.403 63.6659 204.902ZM75.3551 239.051C75.8582 240.085 76.3752 241.124 76.59 241.449C76.2429 240.803 75.3186 238.919 75.3551 239.051ZM103.217 280.82C103.167 280.776 103.283 280.945 103.487 281.227C104.054 282 105.243 283.671 105.518 284.08C105.428 283.902 104.148 282.016 103.521 281.202C103.359 280.987 103.246 280.844 103.217 280.82ZM4.29572 455.498C2.40883 456.447 2.77242 456.177 1.60297 456.832C1.4133 456.943 0.863312 457.412 2.89025 456.286C3.25835 456.089 1.7776 456.786 4.29572 455.498ZM105.705 398.338C105.366 398.773 104.394 400.19 103.715 401.134C103.892 400.941 105.241 399.022 105.705 398.338ZM4.2857 19.9885C3.43707 19.4327 -0.374382 16.7559 0.592567 17.3843C0.727814 17.4654 3.75016 19.6011 4.2857 19.9885ZM67.9518 150.453C67.6973 152.369 68.1376 148.392 68.2497 147.12C68.215 147.697 67.9758 150.326 67.9518 150.453ZM95.6391 271.262C95.6933 271.336 96.9497 272.909 97.0084 272.977C98.0675 274.242 94.5162 269.79 95.6391 271.262ZM70.5392 228.161C70.5594 228.223 70.5916 228.316 70.6339 228.433C71.037 229.619 72.5921 233.313 73.0269 234.177C72.7175 233.431 71.1151 229.607 70.6633 228.422C70.5354 228.104 70.4804 227.98 70.5392 228.161ZM12.232 451.896C10.8382 452.487 9.52642 453.074 8.26998 453.662C8.54118 453.556 12.0885 451.968 12.232 451.896ZM100.27 277.061C100.338 277.146 100.406 277.228 100.471 277.309C100.403 277.225 100.335 277.142 100.27 277.061ZM44.1608 439.967C45.3638 439.517 45.1292 439.655 45.0561 439.684C44.1524 440.032 42.804 440.474 44.1608 439.967ZM13.8654 26.7909C13.478 26.5667 11.7389 25.2845 10.7189 24.5804C11.0342 24.7575 13.0554 26.2007 13.8654 26.7909ZM119.697 372.245C120.314 370.751 117.575 376.739 116.993 377.991C116.993 378.099 119.627 372.475 119.697 372.245ZM68.3462 144.43C68.3332 144.3 68.3971 141.474 68.4066 142.074C68.4314 142.457 68.3728 144.51 68.3462 144.43ZM115.591 380.98C115.316 381.526 114.715 382.839 114.956 382.393C115.267 381.819 115.664 380.837 115.591 380.98ZM80.5797 423.708C80.8239 423.58 83.9272 421.584 82.674 422.453C81.8059 423.056 81.6289 423.1 81.4206 423.233C81.2024 423.414 76.1343 426.46 80.5797 423.708ZM126.387 336.028C126.433 337.409 126.485 339.079 126.495 340.514C126.522 339.929 126.453 336.616 126.387 336.028ZM67.2831 155.115C67.3712 154.803 68.3638 145.723 67.8464 150.888C67.8344 151.196 67.1942 156.127 67.2831 155.115ZM4.29572 455.498C4.53397 455.379 4.80991 455.241 5.12881 455.082C4.81121 455.238 4.53498 455.377 4.29572 455.498ZM26.5826 446.271C26.1116 446.414 28.4404 445.562 29.1314 445.329C29.3507 445.283 26.6523 446.248 26.5826 446.271ZM126.46 340.624C126.453 341.455 126.469 342.956 126.459 343.977C126.488 343.805 126.493 340.987 126.46 340.624ZM106.868 286.333C107.775 287.717 108.811 289.466 108.8 289.508C108.822 289.535 108.867 289.601 108.939 289.713C109.016 289.828 109.895 291.357 110.279 292.021C112.815 295.875 100.905 276.911 107.796 287.914C107.491 287.385 107.183 286.859 106.868 286.333ZM68.2721 222.124C67.9319 221.273 67.1537 218.809 67.3807 219.44C67.5321 219.887 68.6065 222.981 68.2721 222.124ZM83.5122 253.913C83.3587 253.683 82.0701 251.52 82.0556 251.453C82.8153 252.684 84.1979 254.963 83.5122 253.913ZM66.03 215.425C65.8584 214.881 65.7051 214.154 65.7274 214.22C65.9104 214.778 66.3436 216.341 66.03 215.425ZM8.19102 453.477C8.96093 453.101 11.4854 452.041 12.0509 451.847C12.1495 451.797 12.4232 451.67 12.9224 451.447C12.9209 451.448 12.9193 451.448 12.9178 451.449C13.1925 451.322 16.7738 449.825 20.0221 448.579C24.7078 446.795 28.6264 445.365 20.392 448.495C20.1526 448.588 20.2251 448.55 20.0357 448.614C19.88 448.667 19.5602 448.785 18.7767 449.094C18.6602 449.14 18.6117 449.189 18.2545 449.33C17.4178 449.65 13.0425 451.45 12.1626 451.815C12.1572 451.823 12.1024 451.852 11.9843 451.907C10.9246 452.391 7.58747 453.759 8.19102 453.477ZM86.1729 258.144C85.8894 257.723 85.0359 256.362 84.9686 256.207C85.4016 256.876 86.8298 259.123 86.1729 258.144ZM67.2216 154.823C67.3511 153.787 67.7143 151.154 67.6354 151.954C67.5976 152.448 67.0811 156.021 67.2216 154.823ZM77.945 244.355C80.8375 249.505 78.6243 245.59 79.0318 246.398C78.665 245.72 78.3026 245.038 77.945 244.355ZM-14.0782 468.479C-13.4365 467.806 -14.255 468.535 -14.9231 469.314C-15.1327 469.558 -14.437 468.856 -14.0782 468.479ZM-36.8781 504.185C-36.5293 503.444 -38.4638 506.933 -37.6584 505.603C-37.6192 505.541 -36.9037 504.239 -36.8781 504.185ZM-22.1086 478.298C-21.7068 477.803 -21.4732 477.46 -20.4203 476.015C-21.9909 478.147 -20.5875 476.13 -22.1086 478.298ZM108.787 289.495C108.794 289.503 108.8 289.51 108.8 289.508C108.793 289.498 108.789 289.495 108.787 289.495ZM64.5627 210.101C64.3425 209.4 63.91 207.396 64.0762 207.985C64.0867 208.045 64.5094 209.798 64.5627 210.101ZM12.0509 451.847C11.9632 451.892 12.0107 451.876 12.1626 451.815C12.1677 451.808 12.1269 451.82 12.0509 451.847ZM67.7281 220.733C67.7264 220.659 68.7747 223.633 68.8208 223.756C69.3872 225.478 68.1396 221.97 67.7281 220.733ZM67.404 133.541C67.3867 133.38 67.5855 134.411 67.6449 135.05C67.6898 135.546 67.4661 134.148 67.404 133.541ZM-25.4715 483.379C-25.9998 484.225 -26.7234 485.428 -26.8266 485.669C-26.492 485.089 -25.4423 483.373 -25.4715 483.379ZM-36.1639 502.796C-35.6175 501.874 -34.5366 499.853 -33.7549 498.318C-33.6608 498.133 -33.5704 497.957 -33.4852 497.79C-33.4923 497.778 -33.604 497.978 -33.7778 498.306C-34.3717 499.438 -35.7323 502.037 -36.1639 502.796ZM5.74748 454.639C5.81806 454.596 8.07751 453.526 7.78347 453.703C7.34885 453.952 5.11873 454.958 5.74748 454.639ZM68.0889 138.432C68.1463 139.293 68.0165 138.071 67.8335 136.87C67.7719 136.461 67.7194 136.055 67.6909 135.743C67.6622 135.425 67.7678 136.115 67.8876 136.861C68.0028 137.572 68.082 138.337 68.0889 138.432ZM63.3248 203.876C63.1733 202.452 63.6411 205.965 63.7407 206.468C63.6099 205.813 63.3679 204.377 63.3248 203.876ZM81.2731 250.401C78.8229 246.428 80.2743 248.525 80.6743 249.249C80.7301 249.351 81.3328 250.498 81.2731 250.401ZM-5.51082 13.5682C-6.0605 13.1897 -3.9529 14.511 -3.70256 14.7217C-3.54987 14.848 -5.1557 13.8099 -5.51082 13.5682ZM119.15 310.047C119.07 309.864 118.991 309.683 118.912 309.503C118.97 309.639 119.047 309.816 119.15 310.047ZM63.7769 190.612C63.7296 193.931 63.6273 193.577 63.6115 193.864C63.5722 194.488 63.5116 195.936 63.4095 197.11C63.5345 195.766 63.6451 194.424 63.7472 193.083C63.7141 193.714 63.5089 197.243 63.2373 200.04C63.0907 201.707 63.2961 203.212 63.2826 203.284C63.2412 203.536 63.1129 200.822 63.1641 200.763C63.1626 200.659 63.0952 200.263 63.111 200.028C63.1116 200.018 63.1123 200.009 63.1131 200C63.1934 199.557 63.7575 191.843 63.7769 190.612ZM76.5326 241.886C76.8887 242.544 77.0227 242.715 77.1777 243.026C77.2307 243.132 77.2076 243.166 77.3907 243.527C77.1014 242.982 76.8151 242.434 76.5326 241.886ZM64.2261 184.702C64.2311 183.764 64.03 187.956 64.0264 188.092C64.0184 188.811 64.2228 185.466 64.2261 184.702ZM67.1957 219.25C67.1373 219.106 66.1492 216.067 66.1882 216.085C66.4408 216.89 67.7906 220.943 67.1957 219.25ZM77.6256 243.968C78.1596 244.956 79.2302 246.79 79.0652 246.604C79.0644 246.602 79.0636 246.601 79.0627 246.599C78.576 245.726 78.0965 244.849 77.6256 243.968ZM68.1581 142.427C68.0415 140.272 68.1919 141.297 68.2025 143.201C68.1543 143.776 68.1745 142.783 68.1581 142.427ZM67.5295 135.58C67.4074 135.019 66.746 129.072 66.8991 129.972C66.9452 130.296 67.2989 133.717 67.3293 133.871C67.3648 134.107 67.2735 133.017 67.4987 134.831C67.467 134.727 67.5611 135.775 67.5295 135.58ZM68.0694 140.644C67.8992 138.505 67.9382 138.003 68.0723 139.625C68.1147 140.259 68.0896 140.949 68.0694 140.644ZM67.7308 149.316C67.7984 148.559 67.9573 146.541 68.0579 145.139C67.9717 147.017 67.8076 148.878 67.6029 150.729C67.5564 150.94 67.6761 149.978 67.7313 149.31C67.7311 149.312 67.731 149.314 67.7308 149.316ZM-42.8224 513.485C-41.9783 512.058 -44.0019 515.297 -44.0802 515.438C-44.3092 515.859 -43.1995 514.123 -42.8224 513.485ZM-17.0892 7.61681C-17.4969 7.39169 -17.7679 7.28195 -18.6397 6.74728C-17.7377 7.2333 -16.8435 7.72385 -15.9537 8.21913C-15.3129 8.69226 -16.6454 7.86062 -17.0892 7.61681ZM-20.596 5.90349C-20.4702 5.97818 -21.2168 5.68321 -19.5571 6.54292C-18.4351 7.10648 -24.3697 3.70272 -25.5083 3.23615C-24.2983 3.86889 -21.6682 5.27127 -20.596 5.90349ZM-31.4968 1.11952C-31.5727 1.0759 -29.2095 2.03731 -28.9302 2.17899C-27.5004 2.77551 -31.0665 1.16079 -31.4968 1.11952ZM-24.0546 4.55051C-25.1338 4.00199 -22.7731 5.27348 -22.0661 5.65961C-21.9798 5.67862 -23.8813 4.63371 -24.0546 4.55051ZM-35.9274 498.102C-35.8122 497.843 -35.6908 497.596 -35.5779 497.38C-35.2042 496.666 -34.9518 496.361 -35.5051 497.418C-35.552 497.507 -35.6045 497.606 -35.6628 497.715C-35.7088 497.801 -35.9489 498.152 -35.9274 498.102ZM-29.2267 2.15795C-28.1086 2.62921 -30.5539 1.52045 -31.2981 1.29006C-31.362 1.27202 -29.3995 2.06919 -29.2267 2.15795ZM-35.6703 497.193C-34.9177 495.61 -35.0299 496.246 -35.1242 496.444C-35.2231 496.652 -35.3932 496.983 -35.596 497.371C-36.1872 498.504 -37.08 500.095 -37.3145 500.5C-35.2678 496.691 -35.9353 497.773 -35.7221 497.306C-35.7087 497.276 -35.6918 497.239 -35.6703 497.193ZM-31.7813 490.1C-30.9806 488.682 -32.9465 492.349 -33.3571 493.028C-32.9774 492.315 -32.0116 490.502 -31.7813 490.1ZM-26.8309 481.533C-26.3748 480.783 -24.9532 478.592 -24.6755 478.249C-25.226 479.036 -26.612 481.233 -26.8309 481.533ZM-25.832 479.811C-25.1106 478.641 -24.8284 478.433 -25.7309 479.735C-25.7658 479.786 -25.8577 479.855 -25.832 479.811ZM-21.407 473.47C-20.8932 472.723 -20.1629 471.986 -21.0631 473.141C-21.3289 473.485 -21.4607 473.549 -21.407 473.47ZM-34.8435 495.15C-34.2662 494.001 -33.4215 492.575 -34.6891 495.008C-34.2315 494.159 -33.7708 493.313 -33.3051 492.469C-34.9506 495.665 -34.9161 495.384 -35.39 496.301C-35.6397 496.79 -35.7737 497.084 -35.8359 497.247C-35.9362 497.511 -35.8505 497.437 -35.7535 497.29C-35.7521 497.288 -35.7507 497.285 -35.7492 497.283C-35.7505 497.285 -35.7518 497.288 -35.7531 497.29C-36.339 498.328 -38.6625 502.72 -40.1254 505.191C-38.8907 503.026 -37.0127 499.464 -35.887 497.221C-35.8705 497.188 -35.8541 497.156 -35.8379 497.124C-35.5136 496.484 -35.1692 495.875 -34.889 495.331C-34.4388 494.458 -34.8756 495.215 -34.8458 495.155C-34.8451 495.153 -34.8443 495.152 -34.8435 495.15ZM-14.7063 465.79C-12.8327 463.891 -13.9735 465.139 -15.0482 466.192C-15.095 466.236 -14.7528 465.837 -14.7063 465.79ZM-32.5047 1.28245C-29.3362 2.39685 -31.5486 1.22989 -25.0825 4.54694C-27.7735 3.08818 -25.2093 4.42237 -25.7293 4.1251C-26.1455 3.88158 -27.7485 3.11381 -26.8064 3.52841C-28.0227 2.86836 -33.5096 0.665748 -33.6936 0.896031C-33.6916 0.896364 -33.6895 0.896698 -33.6875 0.897033C-33.8202 0.889613 -33.5173 1.0006 -32.5047 1.28245ZM-27.0801 481.361C-26.7236 480.538 -26.3558 480.363 -25.4921 478.848C-24.0982 476.994 -28.9677 484.222 -29.3142 485.239C-24.4697 477.136 -32.3707 490.676 -29.1973 484.899C-31.8571 489.631 -30.1135 486.424 -30.5583 487.135C-31.0342 487.896 -32.4893 490.596 -32.4571 490.436C-32.4563 490.435 -32.4555 490.433 -32.4547 490.432C-31.5525 488.787 -30.6291 487.152 -29.6771 485.532C-30.5059 487.177 -28.6053 483.843 -27.9888 482.69C-27.6884 482.245 -27.3856 481.802 -27.0801 481.361ZM-32.3454 490.592C-32.268 490.425 -30.2621 486.872 -30.365 487.117C-30.6415 487.588 -33.4354 492.654 -32.3454 490.592ZM-40.8357 506.274C-40.0989 505.026 -39.0165 503.063 -38.6013 502.392C-39.2982 503.663 -40.3968 505.616 -40.8357 506.274ZM7.99082 451.006C9.70612 450.264 4.47562 452.665 5.97189 451.934C6.04613 451.894 7.90536 451.039 7.99082 451.006ZM-24.7238 477.807C-23.6752 476.213 -24.0812 477.03 -24.9045 478.176C-24.9522 478.243 -24.772 477.881 -24.7238 477.807ZM-29.9494 2.24695C-29.8269 2.27721 -25.3042 4.42917 -24.5208 4.88985C-24.9461 4.57558 -30.0377 2.09771 -29.9494 2.24695ZM-42.2491 508.402C-40.8493 505.877 -38.8189 502.54 -38.6208 502.159C-38.4172 501.782 -38.7868 502.345 -38.7409 502.258C-38.624 502.069 -36.4825 498.066 -36.3873 497.864C-36.3123 497.725 -36.6261 498.491 -36.1732 497.668C-37.0043 499.302 -41.0363 506.558 -41.3052 506.902C-41.4834 507.185 -40.2573 504.984 -42.2466 508.398C-42.2474 508.399 -42.2483 508.401 -42.2491 508.402ZM-38.1209 501.211C-38.633 502.222 -37.1154 499.426 -36.7745 498.735C-35.9979 497.203 -38.0457 501.089 -38.1209 501.211ZM-34.5777 494.39C-34.4182 494.061 -32.8642 491.133 -32.6945 490.904C-33.4092 492.302 -34.9505 495.134 -34.5777 494.39ZM-13.3634 464.166C-12.7325 463.563 -10.9339 461.97 -10.802 461.913C-11.4859 462.459 -13.2494 464.088 -13.3634 464.166ZM-14.9404 10.6965C-16.165 9.97726 -13.366 11.7001 -12.5513 12.202C-12.4951 12.2099 -14.8369 10.7532 -14.9404 10.6965ZM-24.7789 477.378C-24.6084 476.875 -18.1703 468.559 -17.0096 467.596C-18.1195 468.564 -24.4832 476.807 -24.6496 477.262C-24.7303 477.374 -24.8148 477.432 -24.7789 477.378ZM-36.1014 496.872C-36.1377 496.935 -36.1726 496.997 -36.2061 497.057C-36.6096 497.78 -36.816 498.272 -36.8656 498.369C-37.3974 499.412 -38.5542 501.529 -38.2655 501.084C-37.673 499.976 -36.6473 498.06 -36.1539 497.084C-35.8355 496.458 -35.7317 496.23 -36.1014 496.872ZM-12.9481 463.509C-10.2763 461.111 -15.3345 465.796 -14.6795 465.172C-14.6449 465.124 -13.2298 463.752 -12.9481 463.509ZM-25.4475 478.339C-26.0072 478.919 -31.3979 487.88 -32.1273 489.383C-31.3432 488.104 -30.7969 487.025 -29.776 485.286C-29.4995 484.817 -29.5491 484.956 -29.5194 484.906C-29.0381 484.096 -29.4253 484.686 -29.1284 484.186C-28.9876 483.845 -24.8275 477.428 -25.4475 478.339ZM-36.3771 497.34C-36.6414 497.854 -39.6976 503.494 -39.8436 503.707C-40.7226 505.427 -36.5563 497.815 -36.3771 497.34ZM-24.9564 477.509C-25.6805 478.384 -28.4361 482.798 -26.4819 479.822C-26.2949 479.538 -25.5315 478.316 -24.9564 477.509ZM-13.2805 463.715C-13.1717 463.573 -10.3408 461.109 -10.2547 461.106C-10.7132 461.409 -14.7516 465.089 -13.2805 463.715ZM-14.7454 464.994C-14.6788 464.933 -15.2804 465.575 -14.0193 464.351C-13.909 464.255 -13.7694 464.005 -12.0991 462.552C-11.759 462.258 -11.2053 461.835 -11.242 461.869C-13.0129 463.351 -17.9588 468.196 -14.7454 464.994ZM-36.4693 497.425C-36.3305 497.107 -36.7717 497.819 -37.0911 498.501C-37.2284 498.794 -36.912 498.28 -36.4693 497.425ZM-3.78326 456.55C-3.79735 456.558 -3.81099 456.566 -3.82419 456.574C-4.31114 456.854 -4.22519 456.792 -3.83733 456.552C-2.83528 455.91 0.309868 454.185 0.539146 454.088C0.347603 454.188 -3.60902 456.418 -3.78326 456.55ZM-12.2849 12.7083C-12.2863 12.7074 -12.2877 12.7065 -12.2892 12.7057C-10.7761 13.6477 -11.6924 13.0312 -11.6212 13.0745C-8.38728 15.0697 -9.2825 14.601 -8.78677 14.9275C-7.72836 15.6371 -7.84969 15.4437 -6.07307 16.6587C-9.0128 14.6611 -6.32092 16.4544 -6.21884 16.4839C-5.81026 16.5848 -10.2135 13.9455 -11.7027 12.9876C-11.909 12.8517 -10.3465 13.7913 -10.8741 13.4424C-12.5853 12.297 -18.1182 9.1352 -12.2849 12.7083ZM-37.366 499.012C-37.7608 499.74 -40.77 505.215 -39.9365 503.783C-39.775 503.568 -36.7364 497.976 -37.366 499.012ZM106.534 291.497C107.265 292.803 105.466 289.834 105.141 289.285C104.987 289.004 106.216 290.916 106.534 291.497ZM92.0238 271.881C90.9149 270.443 89.8773 268.819 91.2259 270.637C91.3697 270.832 92.1666 272.034 92.0238 271.881ZM113.462 378.255C114.221 376.543 114.259 376.679 113.665 377.928C113.458 378.362 113.439 378.309 113.462 378.255ZM116.241 310.861C116.164 310.689 115.288 308.715 115.339 308.779C115.683 309.5 116.749 311.959 116.241 310.861ZM113.194 378.785C113.688 377.791 112.928 379.543 112.271 380.739C112.582 380.113 113.142 378.892 113.194 378.785ZM-22.8379 474.176C-22.2476 473.432 -20.6089 471.298 -19.5994 470.124C-19.5482 469.951 -22.1981 473.279 -22.8379 474.176ZM96.8447 277.846C95.81 276.497 98.1074 279.322 97.8592 279.09C97.8299 279.056 96.8861 277.899 96.8447 277.846ZM75.5614 423.038C76.6487 422.491 73.2571 424.342 74.1717 423.796C74.2185 423.773 75.5044 423.07 75.5614 423.038ZM60.1227 430.258C60.9825 429.865 64.6557 428.258 63.2377 428.912C63.0208 429.012 60.1967 430.254 60.1227 430.258ZM-8.718 15.015C-9.16826 14.7828 -6.70952 16.3668 -6.35457 16.5941C-6.21408 16.6804 -8.12796 15.3138 -8.718 15.015ZM118.414 367.192C118.791 366.308 119.68 363.987 119.853 363.58C119.45 364.679 118.348 367.506 118.414 367.192ZM101.534 283.936C101.344 283.692 101.13 283.412 100.913 283.13C100.092 282.056 99.2086 280.896 99.5538 281.247C101.033 283.197 99.7002 281.513 100.926 283.12C101.082 283.328 101.281 283.593 101.534 283.936ZM110.391 384.327C110.743 383.646 111.068 383.154 111.032 383.233C110.688 383.987 110.06 385.014 110.391 384.327ZM122.662 329.353C122.641 329.307 122.242 326.936 122.31 327.251C122.348 327.347 122.701 329.379 122.662 329.353ZM2.56847 452.864C3.59682 452.317 0.407265 453.887 -0.495636 454.43C-0.930511 454.703 2.433 452.917 2.56847 452.864ZM98.858 402.271C98.7628 402.342 101.083 399.256 100.207 400.502C99.9912 400.816 98.8973 402.249 98.858 402.271ZM70.9113 425.298C73.3018 424.268 63.3899 428.846 65.9714 427.591C66.1667 427.513 70.7192 425.407 70.9113 425.298ZM54.5798 432.576C54.9933 432.398 54.7309 432.353 53.0291 433.097C52.8032 433.196 53.8833 432.805 53.6998 432.888C53.5902 432.948 49.8445 434.437 49.6582 434.496C49.4681 434.565 49.6717 434.436 49.4809 434.503C49.2703 434.579 46.948 435.502 45.7192 435.955C43.408 436.809 43.1394 436.86 42.9514 436.929C42.3988 437.13 41.4767 437.496 40.3508 437.902C34.6824 439.948 25.9526 442.983 21.4766 444.762C25.4787 443.23 29.3161 441.905 33.3142 440.489C32.1197 440.827 39.2063 438.453 35.0581 439.832C36.9809 439.209 53.2933 433.254 54.5752 432.578C54.5767 432.577 54.5783 432.577 54.5798 432.576ZM87.7084 266.131C88.182 266.879 86.2313 264.102 85.329 262.639C85.0881 262.255 84.9143 261.968 84.8691 261.876C84.9591 262.011 85.135 262.281 85.3562 262.621C86.1662 263.881 87.6436 266.038 87.7084 266.131ZM103.383 287.023C103.657 287.466 103.86 287.912 105.326 290.203C105.328 290.206 105.329 290.208 105.33 290.21C105.757 290.884 105.306 290.094 105.389 290.215C105.425 290.259 106.739 292.361 105.688 290.589C104.057 287.901 105.476 290.374 104.59 288.948C104.494 288.771 102.807 286.085 102.914 286.242C102.925 286.255 103.442 287.052 103.532 287.184C103.872 287.67 103.74 287.411 103.787 287.481C103.964 287.694 106.544 291.996 106.927 292.622C107.111 292.787 102.801 285.76 102.549 285.552C102.431 285.389 102.407 285.508 102.282 285.341C102.242 285.286 101.437 284.102 100.79 283.221C100.443 282.744 100.144 282.346 100.051 282.228C99.9742 282.13 99.9145 282.056 99.8704 282.001C100.201 282.382 98.3607 280 98.3881 280.094C98.4139 280.141 99.6899 281.775 99.7329 281.834C99.7533 281.859 99.7713 281.881 99.7879 281.902C99.6854 281.787 100.165 282.423 100.762 283.241C101.832 284.694 103.228 286.811 102.663 286.025C103.762 287.715 102.566 285.745 103.383 287.023ZM108.339 295.41C108.247 295.223 108.152 295.033 108.058 294.845C109.767 297.966 111.681 301.613 113.437 305.335C113.882 306.28 113.321 305.216 113.916 306.449C114.39 307.438 114.939 308.522 114.702 307.974C114.646 307.84 113.68 305.826 113.2 304.817C111.782 301.839 112.177 302.574 112.096 302.398C112.005 302.205 111.052 300.364 110.532 299.357C109.224 296.833 108.651 295.659 106.684 292.319C107.772 294.274 107.11 293.24 108.339 295.41ZM87.9446 414.191C87.8356 414.26 86.1148 415.786 85.4605 416.291C85.5831 416.242 87.3321 414.751 87.9446 414.191ZM59.1294 91.4001C59.0869 90.6856 59.8912 95.9402 59.6411 94.5608C59.5966 94.2537 59.2534 92.0509 59.1294 91.4001ZM61.9766 115.602C62.0033 115.777 61.9915 115.736 61.959 115.575C61.8503 115.063 61.582 113.388 61.6146 113.388C61.6216 113.39 61.9179 115.293 61.9717 115.573C61.9742 115.587 61.9758 115.598 61.9766 115.602ZM123.089 338.112C123.095 338.251 123.138 340.215 123.138 340.283C123.224 341.583 123.049 335.103 123.089 338.112ZM64.9521 144.661C65.1231 142.204 64.6857 149.61 64.7897 147.343C64.8069 147.229 64.9571 144.777 64.9521 144.661ZM63.8833 155.006C63.9745 154.409 64.306 151.764 64.32 151.732C64.3574 151.681 63.9731 154.71 63.8833 155.006ZM109.984 384.698C110.08 384.421 108.448 387.506 107.812 388.544C107.723 388.824 109.426 385.772 109.984 384.698ZM119.168 364.501C113.399 378.117 114.894 375.192 119.505 363.691C119.478 363.66 119.501 363.638 119.168 364.501ZM111.399 381.841C111.672 381.368 112.403 379.844 112.894 378.811C112.78 378.996 111.772 381.1 111.399 381.841ZM57.6722 85.3026C57.9142 86.1729 58.8434 90.0985 58.6987 89.3972C58.7061 89.2178 57.6393 84.9658 57.6722 85.3026ZM123.067 339.352C123.019 339.002 123.065 343.456 123.063 343.8C123.11 345.176 123.081 339.707 123.067 339.352ZM98.5704 402.233C98.0646 402.831 96.7111 404.593 95.8005 405.689C96.2484 405.214 97.8391 403.202 98.5704 402.233ZM104.501 393.781C104.454 393.858 103.354 395.522 103.303 395.596C102.433 396.981 105.541 392.269 104.501 393.781ZM-14.5978 11.7493C-14.5407 11.7848 -13.2459 12.5844 -13.2006 12.6119C-12.0244 13.2933 -15.9121 10.8949 -14.5978 11.7493Z" fill="#BAE582" fill-opacity="0.3"/>
</svg>
