<svg width="750" height="631" viewBox="0 0 750 631" fill="none" xmlns="http://www.w3.org/2000/svg">
<path d="M83.3629 196.184C76.879 125.19 73.6371 89.6935 94.6823 69.0415C115.728 48.3896 150.967 52.4868 221.446 60.6812L578.042 102.142C643.475 109.749 676.192 113.553 693.198 136.654C710.205 159.755 704.042 192.022 691.718 256.555L654.836 449.676C645.727 497.372 641.173 521.22 624.325 535.338C607.477 549.455 583.218 549.752 534.699 550.345L236.742 553.987C179.653 554.685 151.108 555.033 132.04 537.711C112.973 520.388 110.355 491.728 105.12 434.407L83.3629 196.184Z" fill="#1DA7DF" fill-opacity="0.2"/>
<path d="M254.89 34.7184L611.149 110.562C643.385 117.425 667.355 122.532 685.055 128.956C702.701 135.36 713.791 142.963 720.549 154.618C727.307 166.273 728.397 179.675 725.19 198.171C721.973 216.723 714.498 240.065 704.441 271.451L644.275 459.221C636.845 482.41 631.324 499.631 625.366 512.611C619.431 525.542 613.152 534.053 604.326 539.947C595.5 545.84 585.232 548.378 571.014 548.904C556.742 549.432 538.719 547.932 514.453 545.908L211.855 520.663C183.378 518.287 162.215 516.517 146.049 513.006C129.94 509.506 119.068 504.33 111.008 495.325C102.947 486.321 99.0012 474.944 97.2999 458.547C95.5927 442.092 96.1677 420.863 96.9471 392.298L103.451 153.929C104.42 118.424 105.146 92.0111 108.532 72.1547C111.909 52.353 117.876 39.4452 129.048 30.6506C140.22 21.856 154.168 19.0864 174.21 20.4539C191.794 21.6539 213.779 26.0131 242.274 32.0386L254.89 34.7184Z" stroke="#A1D55D" stroke-opacity="0.2" stroke-width="4"/>
</svg>
